<?xml version="1.0" encoding="UTF-8"?>
<svg width="22px" height="22px" viewBox="0 0 22 22" version="1.1" xmlns="http://www.w3.org/2000/svg" xmlns:xlink="http://www.w3.org/1999/xlink">
    <!-- Generator: Sketch 49 (51002) - http://www.bohemiancoding.com/sketch -->
    <!-- <title>Group 165</title> -->
    <desc>Created with Sketch.</desc>
    <defs></defs>
    <g id="陈杰" stroke="none" stroke-width="1" fill="none" fill-rule="evenodd" opacity="0.65">
        <g id="04.作业列表-添加作业" transform="translate(-336.000000, -668.000000)">
            <g id="Group-165" transform="translate(335.000000, 667.000000)">
                <g id="code-square-o" transform="translate(1.476562, 1.476562)" fill="#000000" fill-rule="nonzero">
                    <path d="M19.3476562,0.01171875 L1.69921875,0.01171875 C0.76640625,0.01171875 0.01171875,0.76640625 0.01171875,1.69921875 L0.01171875,19.35 C0.01171875,20.2828125 0.76640625,21.0375 1.69921875,21.0375 L19.35,21.0375 C20.2828125,21.0375 21.0375,20.2828125 21.0375,19.35 L21.0375,1.69921875 C21.0351562,0.76640625 20.278125,0.01171875 19.3476562,0.01171875 Z M19.3476562,19.35 L1.69921875,19.35 L1.69921875,1.69921875 L19.3476562,1.69921875 L19.3476562,19.35 Z M3.2859375,11.1375 C3.45,11.3015625 3.665625,11.3835938 3.88125,11.3835938 C4.096875,11.3835938 4.31484375,11.3015625 4.47890625,11.1351563 L7.76953125,7.8328125 C8.09765625,7.5046875 8.09765625,6.975 7.771875,6.64453125 L4.48125,3.31171875 C4.153125,2.98125 3.61875,2.9765625 3.28828125,3.3046875 C2.9578125,3.6328125 2.953125,4.1671875 3.28125,4.49765625 L5.98359375,7.23515625 L3.28359375,9.94453125 C2.95546875,10.275 2.95546875,10.8070313 3.2859375,11.1375 Z M7.490625,10.5304687 C7.490625,10.996875 7.86796875,11.3742188 8.33203125,11.3765625 L12.99375,11.3835937 C12.99375,11.3835937 12.99375,11.3835937 12.9960938,11.3835937 C13.4625,11.3835937 13.8398438,11.00625 13.8398438,10.5421875 C13.8398438,10.0757813 13.4625,9.6984375 12.9984375,9.69609375 L8.33671875,9.6890625 C8.33671875,9.6890625 8.33671875,9.6890625 8.334375,9.6890625 C7.8703125,9.6890625 7.49296875,10.0664062 7.490625,10.5304687 Z" id="Shape"></path>
                </g>
                <rect id="Rectangle-47-Copy" x="0" y="0" width="24" height="24"></rect>
            </g>
        </g>
    </g>
</svg>