<?xml version="1.0" encoding="UTF-8"?>
<svg width="19px" height="19px" viewBox="0 0 19 19" version="1.1" xmlns="http://www.w3.org/2000/svg" xmlns:xlink="http://www.w3.org/1999/xlink">
    <!-- Generator: Sketch 50.2 (55047) - http://www.bohemiancoding.com/sketch -->
    <title>Group 4</title>
    <desc>Created with Sketch.</desc>
    <defs></defs>
    <g id="小雪" stroke="none" stroke-width="1" fill="none" fill-rule="evenodd">
        <g id="49-主机组管理" transform="translate(-386.000000, -340.000000)" fill="#000000">
            <g id="Group-29" transform="translate(384.000000, 284.000000)">
                <g id="Group-41" transform="translate(2.000000, 55.000000)">
                    <g id="Group-4" transform="translate(0.000000, 1.492683)">
                        <path d="M15.4224854,8.3275378 C15.4224854,8.65517195 15.688022,8.92073171 16.0155866,8.92073171 C16.3432439,8.92073171 16.6088037,8.65517195 16.6088037,8.3275378 C16.6088037,7.99997317 16.3432439,7.73441341 16.0155866,7.73441341 C15.688022,7.73441341 15.4224854,7.99997317 15.4224854,8.3275378 Z" id="Fill-5"></path>
                        <g id="Group-2" fill-opacity="0.45">
                            <g id="Group">
                                <g id="Group-3">
                                    <path d="M7.71124268,15.4456561 L5.33849024,15.4456561 C4.23002561,15.4456561 3.18643902,15.0137305 2.40234146,14.2296329 C1.6182439,13.4455585 1.18631829,12.4018793 1.18631829,11.2933915 C1.18631829,10.1849037 1.6182439,9.14131707 2.40234146,8.35721951 C3.18643902,7.57312195 4.23002561,7.14121951 5.33849024,7.14121951 C5.66661098,7.14121951 5.93170732,6.8761 5.93170732,6.54809512 L5.93170732,6.54068049 C5.93170732,5.11512439 6.48780488,3.77312195 7.49619512,2.7665622 C8.5045622,1.76007195 9.84475732,1.20207439 11.2701976,1.20207439 C12.126611,1.20207439 12.945928,1.39858537 13.7022207,1.78595366 C14.4251476,2.15668537 15.0646829,2.69614634 15.5503646,3.34863415 C15.7468756,3.61183049 16.1176073,3.66560976 16.3808037,3.46909878 C16.644,3.27261098 16.6977793,2.90187927 16.5012683,2.63865976 C15.9062439,1.84163293 15.1258768,1.18170732 14.243489,0.729437805 C13.3296817,0.262315854 12.3027549,0.0157560976 11.2701976,0.0157560976 C10.3897098,0.0157560976 9.53521951,0.188169512 8.73075488,0.529219512 C7.95407195,0.857317073 7.25524268,1.32816951 6.65651098,1.92687805 C6.05777927,2.52560976 5.58695,3.22443902 5.25885244,4.00112195 C4.99002561,4.63505 4.82692683,5.30049024 4.76946341,5.98458293 C3.55907073,6.1124622 2.4375378,6.64629268 1.5644878,7.51755854 C0.556097561,8.52592561 0,9.86792805 0,11.2933915 C0,12.7188317 0.556097561,14.0609268 1.5644878,15.0675098 C2.57104756,16.0758768 3.91305,16.6319744 5.33849024,16.6319744 L7.71124268,16.6319744 C8.03934024,16.6319744 8.3043439,16.366878 8.3043439,16.0387805 C8.3043439,15.7106598 8.03934024,15.4456561 7.71124268,15.4456561 Z" id="Fill-1"></path>
                                </g>
                                <path d="M17.795122,5.95487805 L10.6770963,5.95487805 C10.0227085,5.95487805 9.49077805,6.48690122 9.49077805,7.14121951 L9.49077805,16.6319744 C9.49077805,17.2862695 10.0227085,17.8182927 10.6770963,17.8182927 L17.795122,17.8182927 C18.4494171,17.8182927 18.9814402,17.2862695 18.9814402,16.6319744 L18.9814402,7.14121951 C18.9814402,6.48690122 18.4494171,5.95487805 17.795122,5.95487805 Z M10.6770963,16.6319744 L17.795122,16.6319744 L17.795122,14.2592451 L10.6770963,14.2592451 L10.6770963,16.6319744 Z M10.6770963,13.0729268 L17.795122,13.0729268 L17.795122,10.7002671 L10.6770963,10.7002671 L10.6770963,13.0729268 Z M17.795122,9.51394878 L10.6770963,9.51394878 L10.6770963,7.13938902 L10.6770963,7.14121951 L17.795122,7.14121951 L17.795122,7.13938902 L17.795122,9.51394878 Z" id="Fill-4"></path>
                            </g>
                            <path d="M15.4224854,11.8865854 C15.4224854,12.21415 15.688022,12.4798024 16.0155866,12.4798024 C16.3432439,12.4798024 16.6088037,12.21415 16.6088037,11.8865854 C16.6088037,11.5589512 16.3432439,11.2933915 16.0155866,11.2933915 C15.688022,11.2933915 15.4224854,11.5589512 15.4224854,11.8865854 Z" id="Fill-6"></path>
                            <path d="M15.4224854,15.4456561 C15.4224854,15.7732207 15.688022,16.0387805 16.0155866,16.0387805 C16.3432439,16.0387805 16.6088037,15.7732207 16.6088037,15.4456561 C16.6088037,15.1179988 16.3432439,14.852439 16.0155866,14.852439 C15.688022,14.852439 15.4224854,15.1179988 15.4224854,15.4456561 Z" id="Fill-7"></path>
                        </g>
                    </g>
                </g>
            </g>
        </g>
    </g>
</svg>