<?xml version="1.0" encoding="UTF-8"?>
<svg width="12px" height="15px" viewBox="0 0 12 15" version="1.1" xmlns="http://www.w3.org/2000/svg" xmlns:xlink="http://www.w3.org/1999/xlink">
    <!-- Generator: Sketch 50.2 (55047) - http://www.bohemiancoding.com/sketch -->
    <!-- <title>Group</title> -->
    <desc>Created with Sketch.</desc>
    <defs>
        <polygon id="path-1" points="0.00120603015 0.00729648241 9.88944724 0.00729648241 9.88944724 12.294191 0.00120603015 12.294191"></polygon>
    </defs>
    <g id="小雪" stroke="none" stroke-width="1" fill="none" fill-rule="evenodd">
        <g id="34-文件审批" transform="translate(-583.000000, -256.000000)">
            <g id="Group-42" transform="translate(309.000000, 250.000000)">
                <g id="Group-41" transform="translate(207.000000, 2.000000)">
                    <g id="Group" transform="translate(67.000000, 4.000000)">
                        <g id="Group-3">
                            <mask id="mask-2" fill="white">
                                <use xlink:href="#path-1"></use>
                            </mask>
                            <g id="Clip-2"></g>
                            <path d="M9.88944724,0.608261307 C9.88944724,0.275356784 9.62076382,0.00729648241 9.28940704,0.00729648241 L0.600040201,0.00729648241 C0.269628141,0.00729648241 0,0.276361809 0,0.608261307 L0,11.6933065 C0,12.0261307 0.268603015,12.294191 0.600040201,12.294191 L1.19873367,12.294191 L1.19873367,1.80699497 C1.19873367,1.47509548 1.46836181,1.20601005 1.79875377,1.20601005 L9.88944724,1.20601005 L9.88944724,0.608261307 Z" id="Fill-1" fill-opacity="0.45" fill="#000000" mask="url(#mask-2)"></path>
                        </g>
                        <path d="M9.58974874,12.5956181 L9.58974874,14.3555176 C9.86605025,14.2895678 10.1624523,14.1403015 10.3365226,13.9661508 L11.5689447,12.7398593 C11.7401005,12.5674372 11.8863116,12.2709548 11.9511558,11.9944925 L10.1908744,11.9944925 C9.85859296,11.9944925 9.58974874,12.2636583 9.58974874,12.5956181 Z" id="Fill-4" fill-opacity="0.45" fill="#000000"></path>
                        <path d="M11.3871759,2.10504523 L2.69778894,2.10504523 C2.36737688,2.10504523 2.09774874,2.37413065 2.09774874,2.70601005 L2.09774874,13.7910553 C2.09774874,14.1238794 2.36659296,14.3919397 2.69817085,14.3919397 L8.99041206,14.3919397 L8.99041206,12.5961005 C8.99041206,11.9328643 9.52598995,11.3951759 10.1912764,11.3951759 L11.987196,11.3951759 L11.987196,2.70508543 C11.987196,2.37334673 11.718593,2.10504523 11.3871759,2.10504523 Z" id="Fill-5" fill-opacity="0.45" fill="#000000"></path>
                    </g>
                </g>
            </g>
        </g>
    </g>
</svg>