<?xml version="1.0" encoding="UTF-8"?>
<svg width="18px" height="24px" viewBox="0 0 18 24" version="1.1" xmlns="http://www.w3.org/2000/svg" xmlns:xlink="http://www.w3.org/1999/xlink">
    <!-- Generator: Sketch 49 (51002) - http://www.bohemiancoding.com/sketch -->
    <!-- <title>Group 131</title> -->
    <desc>Created with Sketch.</desc>
    <defs></defs>
    <g id="陈杰" stroke="none" stroke-width="1" fill="none" fill-rule="evenodd" opacity="0.65">
        <g id="04.作业列表-添加作业" transform="translate(-419.000000, -666.000000)">
            <g id="Group-131" transform="translate(416.000000, 666.000000)">
                <rect id="Rectangle-44-Copy-3" x="0" y="0" width="24" height="24"></rect>
                <g id="fork" transform="translate(3.000000, 0.000000)" fill="#000000" fill-rule="nonzero">
                    <path d="M18,3 C18,1.34296875 16.6570312,0 15,0 C13.3429687,0 12,1.34296875 12,3 C12,4.3640625 12.909375,5.51484375 14.15625,5.88046875 L14.15625,8.86875 L8.99296875,14.0296875 L3.83203125,8.86875 L3.83203125,5.8828125 C5.08359375,5.521875 6,4.36875 6,3 C6,1.34296875 4.65703125,0 3,0 C1.34296875,0 0,1.34296875 0,3 C0,4.359375 0.9046875,5.5078125 2.14453125,5.87578125 L2.14453125,9.553125 L2.1375,9.56015625 L8.15625,15.5789063 L8.15625,18.1195313 C6.909375,18.4851563 6,19.6359375 6,21 C6,22.6570313 7.34296875,24 9,24 C10.6570313,24 12,22.6570313 12,21 C12,19.6359375 11.090625,18.4851563 9.84375,18.1195313 L9.84375,15.5671875 L15.8507812,9.56015625 L15.84375,9.553125 L15.84375,5.88046875 C17.090625,5.51484375 18,4.3640625 18,3 Z M1.6875,3 C1.6875,2.27578125 2.27578125,1.6875 3,1.6875 C3.72421875,1.6875 4.3125,2.27578125 4.3125,3 C4.3125,3.72421875 3.72421875,4.3125 3,4.3125 C2.27578125,4.3125 1.6875,3.72421875 1.6875,3 Z M10.3125,21 C10.3125,21.7242187 9.72421875,22.3125 9,22.3125 C8.27578125,22.3125 7.6875,21.7242187 7.6875,21 C7.6875,20.2757813 8.27578125,19.6875 9,19.6875 C9.72421875,19.6875 10.3125,20.2757813 10.3125,21 Z M15,4.3125 C14.2757812,4.3125 13.6875,3.72421875 13.6875,3 C13.6875,2.27578125 14.2757812,1.6875 15,1.6875 C15.7242187,1.6875 16.3125,2.27578125 16.3125,3 C16.3125,3.72421875 15.7242187,4.3125 15,4.3125 Z" id="Shape"></path>
                </g>
            </g>
        </g>
    </g>
</svg>