<?xml version="1.0" encoding="UTF-8"?>
<svg width="18px" height="24px" viewBox="0 0 18 24" version="1.1" xmlns="http://www.w3.org/2000/svg" xmlns:xlink="http://www.w3.org/1999/xlink">
    <!-- Generator: Sketch 49 (51002) - http://www.bohemiancoding.com/sketch -->
    <!-- <title>Group 86</title> -->
    <desc>Created with Sketch.</desc>
    <defs></defs>
    <g id="陈杰" stroke="none" stroke-width="1" fill="none" fill-rule="evenodd" opacity="0.65">
        <g id="39.即时作业-首页" transform="translate(-591.000000, -201.000000)">
            <g id="Group-86" transform="translate(588.000000, 201.000000)">
                <rect id="Rectangle-37-Copy-22" x="0" y="0" width="24" height="24"></rect>
                <g id="addfile" transform="translate(3.000000, 0.000000)" fill="#000000" fill-rule="nonzero">
                    <path d="M17.15625,18 L13.5,18 L13.5,14.34375 C13.5,13.8773438 13.1226562,13.5 12.65625,13.5 C12.1898437,13.5 11.8125,13.8773438 11.8125,14.34375 L11.8125,18 L8.34375,18 C7.87734375,18 7.5,18.3773438 7.5,18.84375 C7.5,19.3101563 7.87734375,19.6875 8.34375,19.6875 L11.8125,19.6875 L11.8125,23.15625 C11.8125,23.6226563 12.1898437,24 12.65625,24 C13.1226562,24 13.5,23.6226563 13.5,23.15625 L13.5,19.6875 L17.15625,19.6875 C17.6226562,19.6875 18,19.3101563 18,18.84375 C18,18.3773438 17.6226562,18 17.15625,18 Z M17.5101563,7.0734375 L10.9945313,0.49921875 C10.8890625,0.39375 10.771875,0.3046875 10.6476563,0.2296875 C10.6148438,0.2109375 10.5796875,0.1921875 10.5445313,0.17578125 C10.5234375,0.1640625 10.5,0.1546875 10.4789063,0.1453125 C10.265625,0.0515625 10.0335938,1.15463195e-14 9.796875,1.15463195e-14 L1.6875,1.15463195e-14 C0.7546875,1.15463195e-14 0,0.7546875 0,1.6875 L0,22.3125 C0,23.2453125 0.7546875,24 1.6875,24 L6.65625,24 C7.12265625,24 7.5,23.6226563 7.5,23.15625 C7.5,22.6898438 7.12265625,22.3125 6.65625,22.3125 L1.6875,22.3125 L1.6875,1.6875 L9,1.6875 L9,7.3125 C9,8.2453125 9.7546875,9 10.6875,9 L16.3125,9 L16.3125,12.65625 C16.3125,13.1226563 16.6898438,13.5 17.15625,13.5 C17.6226562,13.5 18,13.1226563 18,12.65625 L18,8.26171875 C18,7.81640625 17.8242188,7.38984375 17.5101563,7.0734375 Z M10.6875,7.3125 L10.6875,2.5875 L15.3703125,7.3125 L10.6875,7.3125 Z" id="Shape"></path>
                </g>
            </g>
        </g>
    </g>
</svg>