<?xml version="1.0" encoding="UTF-8"?>
<svg width="15px" height="18px" viewBox="0 0 15 18" version="1.1" xmlns="http://www.w3.org/2000/svg" xmlns:xlink="http://www.w3.org/1999/xlink">
    <!-- Generator: Sketch 49 (51002) - http://www.bohemiancoding.com/sketch -->
    <!-- <title>安全检查on</title> -->
    <desc>Created with Sketch.</desc>
    <defs>
        <polygon id="path-1" points="0.00147783251 0.00494163393 14.9773892 0.00494163393 14.9773892 17.6600838 0.00147783251 17.6600838"></polygon>
    </defs>
    <g id="小雪" stroke="none" stroke-width="1" fill="none" fill-rule="evenodd">
        <g id="0运维作业-dashboard" transform="translate(-1085.000000, -275.000000)">
            <g id="Group-27" transform="translate(1049.000000, 256.000000)">
                <g id="安全检查on" transform="translate(36.000000, 19.000000)">
                    <mask id="mask-2" fill="white">
                        <use xlink:href="#path-1"></use>
                    </mask>
                    <g id="Clip-2"></g>
                    <path d="M9.36278325,10.3278909 C9.816133,9.78188103 10.0887192,9.08037856 10.0887192,8.31530467 C10.0887192,6.57404851 8.67716749,5.16259531 6.93600985,5.16259531 C5.19472906,5.16259531 3.78330049,6.57404851 3.78330049,8.31530467 C3.78330049,10.0564623 5.19472906,11.468014 6.93600985,11.468014 C7.63046798,11.468014 8.27258621,11.2433589 8.79359606,10.8628416 L11.05633,13.1256741 C11.1794828,13.2488268 11.3791133,13.2488268 11.5021675,13.1256741 L11.608399,13.0194426 C11.7315517,12.8962899 11.7315517,12.6966594 11.608399,12.5735066 L9.36278325,10.3278909 Z M7.89985222,0.168457381 C8.01753695,0.284688908 8.12566502,0.380033736 8.22408867,0.454417972 C9.59512315,1.49023078 12.0835961,2.17306329 14.3533498,2.32170861 C14.4365764,2.32720122 14.5438424,2.3326692 14.675,2.33806329 C14.8438424,2.345083 14.9773892,2.49047709 14.9773892,2.66739827 L14.9773892,9.40193029 C14.9773892,11.0035066 14.3175616,12.6822259 13.2551724,13.8343687 C12.7037685,14.6043687 11.9988177,15.3267332 11.2594335,16.0385066 C9.30514778,18.1579894 5.9887931,18.14895 3.8626601,16.2723244 C3.02704433,15.5347382 2.26236453,14.6729648 1.56857143,13.6869795 C0.560147783,12.5449352 0,11.046684 0,9.491216 L0,2.67914704 C0,2.50220122 0.133349754,2.35683177 0.302216749,2.34981206 C0.455763547,2.34335886 0.580344828,2.33680713 0.6758867,2.33018152 C2.95738916,2.17276773 5.44894089,1.47870369 6.79948276,0.431018957 C6.88635468,0.363580534 6.98160099,0.277570681 7.08522167,0.173087923 C7.3120936,-0.0559022251 7.67059113,-0.0579219295 7.89975369,0.168457381 L7.89985222,0.168457381 Z M6.93600985,10.522152 C5.71706897,10.522152 4.72906404,9.53412241 4.72906404,8.31530467 C4.72906404,7.09638842 5.71706897,6.10835886 6.93600985,6.10835886 C8.15482759,6.10835886 9.14283251,7.09638842 9.14283251,8.31530467 C9.14283251,9.53412241 8.15482759,10.522152 6.93600985,10.522152 Z" id="Fill-1" fill="#FFFFFF" mask="url(#mask-2)"></path>
                </g>
            </g>
        </g>
    </g>
</svg>