<?xml version="1.0" encoding="UTF-8"?>
<svg width="18px" height="18px" viewBox="0 0 18 18" version="1.1" xmlns="http://www.w3.org/2000/svg" xmlns:xlink="http://www.w3.org/1999/xlink">
    <!-- Generator: Sketch 49 (51002) - http://www.bohemiancoding.com/sketch -->
    <title>流程 (1)</title>
    <desc>Created with Sketch.</desc>
    <defs></defs>
    <g id="小雪" stroke="none" stroke-width="1" fill="none" fill-rule="evenodd">
        <g id="0运维作业-dashboard" transform="translate(-700.000000, -274.000000)" fill="#FFFFFF">
            <path d="M718,288.202891 C717.769383,288.111565 717.622255,287.827447 717.340946,287.867573 C716.625155,287.969225 716.578555,287.574654 716.595488,287.004546 C716.632779,285.73986 716.597254,284.473889 716.611565,283.208267 C716.61836,282.549534 716.310729,282.288823 715.667565,282.29436 C713.886887,282.309929 712.105353,282.274806 710.324782,282.316296 C709.773773,282.32935 709.612334,282.15194 709.698551,281.65026 C709.702617,281.627469 709.698551,281.603447 709.69938,281.580147 C709.712033,280.926096 709.488933,280.100386 709.805018,279.666117 C710.110055,279.245946 710.985708,279.554514 711.60913,279.532471 C712.155216,279.513452 712.458647,279.262451 712.465442,278.729634 C712.482268,277.417599 712.467127,276.105055 712.472237,274.792699 C712.473922,274.46134 712.246542,274.251322 712.094492,274 L705.906444,274 C705.612402,274.325715 705.511044,274.70263 705.519497,275.144336 C705.540604,276.268261 705.518561,277.39347 705.529529,278.517823 C705.537153,279.308542 705.7476,279.508316 706.531017,279.526506 C706.577509,279.527442 706.624831,279.523162 706.67135,279.527442 C707.200396,279.573534 708.099563,279.320018 708.191638,279.636852 C708.418162,280.41524 708.311695,281.299988 708.276999,282.139688 C708.264346,282.428621 707.930499,282.293504 707.747953,282.29436 C705.990976,282.305221 704.233999,282.300192 702.477049,282.301048 C701.586335,282.301556 701.396888,282.481828 701.394373,283.350259 C701.391029,284.685486 701.382576,286.021249 701.400339,287.356477 C701.405448,287.708514 701.325918,287.896624 700.939721,287.84331 C700.562805,287.790852 700.285589,288.009351 700,288.202891 L700,291.577849 C700.141056,291.718611 700.281416,291.859239 700.422579,292 L704.500167,292 C704.757936,291.682658 704.861915,291.325485 704.849262,290.912322 C704.829012,290.210441 704.854291,289.507703 704.840809,288.805929 C704.825668,288.049905 704.633813,287.870917 703.865457,287.842481 C702.781229,287.802783 702.781229,287.802783 702.781229,286.724387 C702.781229,285.858552 702.795541,284.992288 702.774435,284.126988 C702.766918,283.789342 702.8759,283.68884 703.211325,283.691756 C704.779042,283.707432 706.347615,283.706603 707.915251,283.692184 C708.229758,283.68967 708.310865,283.796993 708.307415,284.095743 C708.292996,285.195539 708.29214,286.295977 708.307415,287.39588 C708.311588,287.710708 708.248269,287.834322 707.890801,287.853047 C706.218249,287.938087 706.219292,287.951891 706.219292,289.667779 C706.219292,290.066014 706.240291,290.465186 706.213247,290.861121 C706.18366,291.305743 706.302888,291.680973 706.609583,292 L711.391246,292 C711.698049,291.680973 711.80703,291.305743 711.788439,290.861121 C711.761474,290.207097 711.78769,289.550852 711.780066,288.895463 C711.769927,288.064216 711.567961,287.864309 710.74308,287.842481 C709.69938,287.814901 709.69938,287.814901 709.69938,286.763577 C709.69938,285.897956 709.715377,285.031585 709.690927,284.166151 C709.680788,283.804617 709.77701,283.684534 710.155718,283.690098 C711.699814,283.711204 713.244552,283.707432 714.789504,283.691649 C715.125037,283.688305 715.231531,283.789342 715.226394,284.12656 C715.207803,285.226463 715.206118,286.326687 715.226394,287.426269 C715.233189,287.787508 715.07603,287.835285 714.767569,287.849168 C713.156677,287.920646 713.156677,287.928698 713.156677,289.578753 C713.156677,290.000181 713.174546,290.422252 713.151674,290.842209 C713.128776,291.276584 713.219273,291.663638 713.500769,292 L717.578358,292 C717.71944,291.859239 717.859774,291.718611 718,291.577742 L718,288.202891 Z" id="流程-(1)"></path>
        </g>
    </g>
</svg>