<?xml version="1.0" encoding="UTF-8"?>
<svg width="16px" height="16px" viewBox="0 0 16 16" version="1.1" xmlns="http://www.w3.org/2000/svg" xmlns:xlink="http://www.w3.org/1999/xlink">
    <!-- Generator: Sketch 49 (51002) - http://www.bohemiancoding.com/sketch -->
    <!-- <title>作业区</title> -->
    <desc>Created with Sketch.</desc>
    <defs>
        <polygon id="path-1" points="0 0 15.9830995 0 15.9830995 15.9843709 0 15.9843709"></polygon>
    </defs>
    <g id="小雪" stroke="none" stroke-width="1" fill="none" fill-rule="evenodd">
        <g id="0运维作业-dashboard" transform="translate(-334.000000, -276.000000)">
            <g id="Group-33" transform="translate(297.000000, 256.000000)">
                <g id="作业区" transform="translate(37.000000, 20.000000)">
                    <mask id="mask-2" fill="white">
                        <use xlink:href="#path-1"></use>
                    </mask>
                    <g id="Clip-2"></g>
                    <path d="M10.4465756,2.18146341 L4.16120976,5.81049756 C4.03330732,5.88429268 3.94169756,6.00813659 3.90839024,6.15203902 L3.25145366,8.99853659 C3.14673171,9.45227317 3.6337561,9.81272195 4.03703415,9.57986341 L11.4817756,5.28169756 C11.6846049,5.16446829 11.787122,4.9286439 11.7345951,4.70037073 L11.2321561,2.52300488 C11.1942049,2.35843902 11.0803317,2.22163902 10.9254634,2.1542439 C10.7704976,2.08686829 10.592839,2.09701463 10.4465756,2.18146341 Z M9.80587317,0.0156097561 L6.17233171,0.0156097561 C5.676,0.0155317073 5.24542439,0.358146341 5.13383415,0.841756098 L4.56380488,3.31240976 C4.45906341,3.76606829 4.94602927,4.12651707 5.34938537,3.89365854 L10.2725659,1.05112195 C10.6445073,0.836643902 10.6276683,0.281990244 10.2355122,0.107004878 C10.1003122,0.0466341463 9.95389268,0.0155317073 9.80587317,0.0156097561 Z M14.8686049,13.8685073 L14.2742439,13.8685073 C14.0262244,13.8684293 13.8109659,13.6972488 13.7550244,13.4555512 L13.2395512,11.2214829 C13.201522,11.056839 13.0877268,10.920039 12.9328585,10.8526439 C12.7778927,10.7853463 12.6002341,10.7954146 12.4538927,10.8799415 L7.40388293,13.7970927 C7.32286829,13.843961 7.23086829,13.8685854 7.13726829,13.8685073 L7.13354146,13.8685073 C6.58840976,13.8685073 6.3950439,13.1467902 6.86708293,12.8742244 L12.4853659,9.63077073 C12.6881171,9.51356098 12.7906927,9.27773659 12.7381854,9.0494439 L12.2357463,6.87209756 C12.1977171,6.70753171 12.083922,6.5707122 11.9289561,6.50333659 C11.7740878,6.43596098 11.5964098,6.4460878 11.4500683,6.5305561 L2.84917073,11.4964098 C2.7211122,11.5702634 2.62950244,11.6941073 2.59633171,11.8381659 L2.2241561,13.4553171 C2.16860488,13.6972488 1.95320976,13.8687415 1.7049561,13.8687415 L1.11592195,13.8687415 C0.560214634,13.8687415 0.061502439,14.2720976 0.00556097561,14.8251317 C-0.0586926829,15.4594341 0.443512195,15.9999805 1.06554146,15.9999805 L14.9187512,15.9999805 C15.5407805,15.9999805 16.0429073,15.4597463 15.9787317,14.8251317 C15.9227902,14.2720976 15.4243122,13.8687415 14.8686049,13.8685073 Z" id="Fill-1" fill="#FFFFFF" mask="url(#mask-2)"></path>
                </g>
            </g>
        </g>
    </g>
</svg>