<?xml version="1.0" encoding="UTF-8"?>
<svg width="12px" height="12px" viewBox="0 0 12 12" version="1.1" xmlns="http://www.w3.org/2000/svg" xmlns:xlink="http://www.w3.org/1999/xlink">
    <!-- Generator: Sketch 49 (51002) - http://www.bohemiancoding.com/sketch -->
    <!-- <title>检查模式</title> -->
    <desc>Created with Sketch.</desc>
    <defs></defs>
    <g id="秦剑" stroke="none" stroke-width="1" fill="none" fill-rule="evenodd">
        <g id="63.运维审批" transform="translate(-26.000000, -371.000000)" fill="#A5ACB3" fill-rule="nonzero">
            <g id="检查模式" transform="translate(26.000000, 371.000000)">
                <path d="M11.9999681,3.71424896 C12.0020397,3.91989984 11.903055,4.11090745 11.7407812,4.21439344 C11.5785075,4.31787943 11.3779781,4.31787943 11.2157043,4.21439344 C11.0534306,4.11090745 10.9544459,3.91989984 10.9565175,3.71424896 L10.9565175,1.42940429 C10.9565175,1.27166891 10.8401646,1.14281925 10.6964433,1.14281923 L1.30358834,1.14281923 C1.16168736,1.14281923 1.04351414,1.2714139 1.04351414,1.42940429 L1.04351414,8.28484242 C1.04351414,8.44257781 1.15984587,8.57145067 1.30358834,8.57145067 L3.65217249,8.57145067 C3.83857287,8.57143845 4.01082434,8.68032644 4.10405856,8.8571084 C4.1972321,9.03390913 4.1972321,9.2517159 4.10405856,9.42851663 C4.01083292,9.60531102 3.83857841,9.71420976 3.65217249,9.71419755 L0.523302229,9.71419755 C0.384667394,9.7146896 0.251563023,9.65468306 0.153415628,9.54744409 C0.0551911503,9.44027216 -1.54190188e-05,9.29466561 3.23034463e-09,9.14281252 L3.23034463e-09,0.571387826 C3.23034463e-09,0.255685252 0.234272099,2.79246879e-06 0.523302229,2.79246879e-06 L11.476687,2.79246879e-06 C11.615329,-0.000471616861 11.7484407,0.059518948 11.8466267,0.166726559 C11.9448126,0.273934171 11.9999956,0.419539434 11.9999893,0.571387826 L11.9999681,3.71424896 Z M2.34784332,11.4286309 C2.34784332,11.1129051 2.58315259,10.8571763 2.87190755,10.8571763 L4.95417334,10.8571763 C5.14059119,10.8571606 5.31285653,10.9660699 5.40608058,11.1428804 C5.49929778,11.3196683 5.49929778,11.5375007 5.40608058,11.7142886 C5.31289491,11.8911411 5.14060523,12.0000658 4.95417334,11.9999927 L2.87218272,11.9999927 C2.73338452,12.0007597 2.60003109,11.9409059 2.50163995,11.8336797 C2.40319,11.7264686 2.34783677,11.5806867 2.34784332,11.4286309 Z" id="Shape"></path>
                <path d="M8.80779396,7.80735626 C9.70180704,6.9269467 9.71276248,5.48866629 8.8322406,4.59481763 C7.95171871,3.70096896 6.51315873,3.68999122 5.61904718,4.57035155 C5.61087368,4.57844947 5.60267556,4.58662124 5.59460054,4.59481763 C4.71405402,5.4886663 4.72505871,6.92697133 5.61904718,7.80735626 C6.50350811,8.67819106 7.92335766,8.67819106 8.80779396,7.80735626 Z M8.83132969,8.95711419 C7.30908986,9.85672248 5.34575204,9.35221426 4.44597812,7.83029629 C3.54622881,6.30845216 4.05084374,4.34543101 5.57303433,3.44587195 C7.09527416,2.5463375 9.0586366,3.05082112 9.95841052,4.57271446 C10.5523677,5.57742351 10.5523677,6.82563647 9.95841052,7.83029629 C10.014911,7.83681894 10.0634104,7.85778985 10.0998711,7.89429206 L11.934501,9.72855864 C12.0930225,9.88753891 11.9544916,10.2834512 11.6194767,10.6183953 C11.2869483,10.951321 10.8914201,11.0953361 10.7294273,10.9333037 L8.89435424,9.09859407 C8.85775568,9.06004484 8.8355069,9.01009994 8.83132969,8.95711419 Z" id="Shape"></path>
            </g>
        </g>
    </g>
</svg>