<?xml version="1.0" encoding="UTF-8"?>
<svg width="22px" height="21px" viewBox="0 0 22 21" version="1.1" xmlns="http://www.w3.org/2000/svg" xmlns:xlink="http://www.w3.org/1999/xlink">
    <!-- Generator: Sketch 49 (51002) - http://www.bohemiancoding.com/sketch -->
    <title>Group 185</title>
    <desc>Created with Sketch.</desc>
    <defs></defs>
    <g id="陈杰" stroke="none" stroke-width="1" fill="none" fill-rule="evenodd">
        <g id="04.作业列表-添加作业" transform="translate(-1364.000000, -669.000000)">
            <g id="Group-185" transform="translate(1363.000000, 667.000000)">
                <rect id="Rectangle-48-Copy-13" x="0" y="0" width="24" height="24"></rect>
                <g id="delete" transform="translate(1.000000, 2.000000)" fill="#C6C6C6" fill-rule="nonzero">
                    <path d="M2.71996462,20.7144714 C2.68682852,20.6866937 2.65310071,20.6505826 2.61996462,20.6144714 C2.656651,20.6505826 2.68682852,20.6866937 2.71996462,20.7144714 Z M2.49636841,20.5862976 C2.46112062,20.5541298 2.42633058,20.5219619 2.39337159,20.4862976 C2.4258728,20.5219619 2.46112062,20.5541298 2.49636841,20.5862976 Z M20.7982178,3.24462891 C20.638916,3.08532715 20.4072876,2.99652098 20.1825256,2.99652098 L15.8612366,2.99652098 L15.8612366,1.65023803 C15.8612366,0.739746094 15.1214905,0 14.2109985,0 L6.83459473,0 C5.92410279,0 5.1843567,0.739746094 5.1843567,1.65023803 L5.1843567,2.99652098 L0.841094977,2.99652101 C0.380126953,2.99652101 0.0029296875,3.3709717 0.0029296875,3.8346863 C0.0029296875,4.29840089 0.377380383,4.67285159 0.841094977,4.67285159 L1.58084107,4.67285159 L1.58084107,19.259491 C1.58084107,20.1699829 2.32058716,20.909729 3.2310791,20.909729 L18.0498047,20.909729 C18.9602966,20.909729 19.7000427,20.1699829 19.7000427,19.259491 L19.7000427,4.67285156 L20.1820679,4.67285156 C20.6430359,4.67285156 21.0435791,4.29840087 21.0435791,3.83468627 C21.0440369,3.61221314 20.9575195,3.40393066 20.7982178,3.24462891 Z M6.83184816,1.65527344 L14.2036743,1.65527344 L14.2036743,3.01071166 L6.83184816,3.01071166 L6.83184816,1.65527344 Z M18.0475159,19.2572021 L3.2310791,19.2572021 L3.2310791,4.67285156 L5.36608887,4.67285156 L18.0470581,4.67285156 L18.0470581,19.2572021 L18.0475159,19.2572021 Z M10.5118103,7.48168945 C10.0458069,7.48168945 9.66906738,7.85842896 9.66906738,8.32443237 L9.66906738,16.1434936 C9.66906738,16.6094971 10.0458069,16.9862366 10.5118103,16.9862366 C10.9778137,16.9862366 11.3545532,16.609497 11.3545532,16.1434936 L11.3545532,8.32443237 C11.3545532,7.85888672 10.9778137,7.48168945 10.5118103,7.48168945 Z M5.94699096,7.48168945 C5.48098753,7.48168945 5.10424805,7.85842896 5.10424805,8.32443237 L5.10424805,16.1434936 C5.10424805,16.6094971 5.48098755,16.9862366 5.94699096,16.9862366 C6.41299437,16.9862366 6.78973388,16.609497 6.78973388,16.1434936 L6.7897339,8.32443237 C6.7897339,7.85888672 6.41253663,7.48168945 5.94699096,7.48168945 Z M15.0299378,7.48168945 C14.5639343,7.48168945 14.1871948,7.85842896 14.1871948,8.32443237 L14.1871948,16.1434936 C14.1871948,16.6094971 14.5639343,16.9862366 15.0299378,16.9862366 C15.4959412,16.9862366 15.8726807,16.609497 15.8726807,16.1434936 L15.8726807,8.32443237 C15.8726807,7.85888672 15.4959412,7.48168945 15.0299378,7.48168945 Z" id="Shape"></path>
                </g>
            </g>
        </g>
    </g>
</svg>