<?xml version="1.0" encoding="UTF-8"?>
<svg width="18px" height="18px" viewBox="0 0 18 18" version="1.1" xmlns="http://www.w3.org/2000/svg" xmlns:xlink="http://www.w3.org/1999/xlink">
    <!-- Generator: Sketch 49 (51002) - http://www.bohemiancoding.com/sketch -->
    <!-- <title>Group 98 Copy</title> -->
    <desc>Created with Sketch.</desc>
    <defs></defs>
    <g id="陈杰" stroke="none" stroke-width="1" fill="none" fill-rule="evenodd" opacity="0.65">
        <g id="30.作业列表-添加作业" transform="translate(-498.000000, -672.000000)">
            <g id="Group-98-Copy" transform="translate(495.000000, 669.000000)">
                <rect id="Rectangle-39" x="0" y="0" width="24" height="24"></rect>
                <g id="inbox" transform="translate(3.210938, 3.117188)" fill="#000000" fill-rule="nonzero">
                    <path d="M17.5359375,7.34296875 L17.53125,7.32421875 L14.9015625,0.6421875 C14.784375,0.26484375 14.4351562,0.0046875 14.0390625,0.0046875 L3.3796875,0.0046875 C2.98125,0.0046875 2.62734375,0.26953125 2.51484375,0.6515625 L0.05625,7.265625 L0.04921875,7.28203125 L0.04453125,7.30078125 C0.0140625,7.415625 0.0046875,7.5328125 0.02109375,7.64765625 C0.01875,7.68515625 0.01640625,7.72265625 0.01640625,7.76015625 L0.01640625,16.3359375 C0.01640625,17.1210938 0.65625,17.7609375 1.44140625,17.7609375 L16.1414062,17.7609375 C16.9265625,17.7609375 17.5664062,17.1210938 17.56875,16.3359375 L17.56875,7.76015625 C17.56875,7.7296875 17.56875,7.69921875 17.5664062,7.6734375 C17.5757812,7.55859375 17.5664062,7.4484375 17.5359375,7.34296875 Z M10.603125,6.33515625 L10.5960937,6.703125 C10.5773438,7.75546875 9.85078125,8.46328125 8.7890625,8.46328125 C8.27109375,8.46328125 7.82578125,8.296875 7.5046875,7.98046875 C7.18359375,7.6640625 7.0078125,7.2234375 6.9984375,6.703125 L6.99140625,6.33515625 L2.16796875,6.33515625 L4.03125,1.8046875 L13.3875,1.8046875 L15.3023437,6.33515625 L10.603125,6.33515625 Z M1.8140625,8.13515625 L5.50078125,8.13515625 C6.0703125,9.4734375 7.28203125,10.2632812 8.79140625,10.2632812 C9.58125,10.2632812 10.3148438,10.0429688 10.9078125,9.62578125 C11.428125,9.26015625 11.8335937,8.74921875 12.0960937,8.13515625 L15.7640625,8.13515625 L15.7640625,15.9609375 L1.8140625,15.9609375 L1.8140625,8.13515625 Z" id="Shape"></path>
                </g>
            </g>
        </g>
    </g>
</svg>