<?xml version="1.0" encoding="UTF-8"?>
<svg width="21px" height="21px" viewBox="0 0 21 21" version="1.1" xmlns="http://www.w3.org/2000/svg" xmlns:xlink="http://www.w3.org/1999/xlink">
    <!-- Generator: Sketch 49 (51002) - http://www.bohemiancoding.com/sketch -->
    <!-- <title>search copy</title> -->
    <desc>Created with Sketch.</desc>
    <defs></defs>
    <g id="陈杰" stroke="none" stroke-width="1" fill="none" fill-rule="evenodd" opacity="0.65">
        <g id="04.作业列表-添加作业" transform="translate(-562.000000, -669.000000)" fill="#000000">
            <g id="search-copy" transform="translate(562.000000, 669.000000)">
                <path d="M20.7539063,19.5585938 L15.9328125,14.7398438 C17.2242188,13.18125 18,11.1820312 18,9 C18,4.02890625 13.9710938,0 9,0 C4.02890625,0 0,4.02890625 0,9 C0,13.9710937 4.02890625,18 9,18 C11.1820313,18 13.18125,17.2242187 14.7398438,15.9328125 L19.5609375,20.7539062 C19.725,20.9179688 19.940625,21 20.1585938,21 C20.3765625,21 20.5898438,20.9179688 20.75625,20.7539062 C21.0820312,20.4234375 21.0820312,19.8890625 20.7539063,19.5585938 Z M11.8453125,15.7382812 C10.9453125,16.1203125 9.9890625,16.3125 9,16.3125 C8.0109375,16.3125 7.0546875,16.1203125 6.1546875,15.7382812 C5.28515625,15.3703125 4.50234375,14.8429687 3.8296875,14.1703125 C3.15703125,13.4976563 2.6296875,12.7148438 2.26171875,11.8453125 C1.8796875,10.9453125 1.6875,9.9890625 1.6875,9 C1.6875,8.0109375 1.8796875,7.0546875 2.26171875,6.1546875 C2.6296875,5.28515625 3.15703125,4.50234375 3.8296875,3.8296875 C4.50234375,3.15703125 5.28515625,2.6296875 6.1546875,2.26171875 C7.0546875,1.8796875 8.0109375,1.6875 9,1.6875 C9.9890625,1.6875 10.9453125,1.8796875 11.8453125,2.26171875 C12.7148438,2.6296875 13.4976563,3.15703125 14.1703125,3.8296875 C14.8429688,4.50234375 15.3703125,5.28515625 15.7382812,6.1546875 C16.1203125,7.0546875 16.3125,8.0109375 16.3125,9 C16.3125,9.9890625 16.1203125,10.9453125 15.7382812,11.8453125 C15.3703125,12.7148438 14.8429687,13.4976563 14.1703125,14.1703125 C13.4976563,14.8429688 12.7171875,15.3703125 11.8453125,15.7382812 Z" id="Shape" fill-rule="nonzero"></path>
                <rect id="Rectangle-31" x="4" y="8" width="10" height="1.5" rx="0.75"></rect>
                <rect id="Rectangle-31" transform="translate(9.000000, 8.750000) rotate(-270.000000) translate(-9.000000, -8.750000) " x="4" y="8" width="10" height="1.5" rx="0.75"></rect>
            </g>
        </g>
    </g>
</svg>