<?xml version="1.0" encoding="UTF-8"?>
<svg width="16px" height="18px" viewBox="0 0 16 18" version="1.1" xmlns="http://www.w3.org/2000/svg" xmlns:xlink="http://www.w3.org/1999/xlink">
    <!-- Generator: Sketch 49 (51002) - http://www.bohemiancoding.com/sketch -->
    <!-- <title>Group 170</title> -->
    <desc>Created with Sketch.</desc>
    <defs></defs>
    <g id="陈杰" stroke="none" stroke-width="1" fill="none" fill-rule="evenodd" opacity="0.65">
        <g id="39.即时作业-首页" transform="translate(-513.000000, -204.000000)">
            <g id="Group-170" transform="translate(511.000000, 203.000000)">
                <rect id="Rectangle-48-Copy" x="0" y="0" width="20" height="20"></rect>
                <g id="filter" transform="translate(2.500000, 1.875000)" fill="#889099" fill-rule="nonzero">
                    <path d="M14.8652344,1.0078125 C14.6152344,0.40234375 14.0292969,0.01171875 13.3730469,0.01171875 L1.62109375,0.01171875 C0.966796875,0.01171875 0.380859375,0.40234375 0.12890625,1.0078125 C-0.123046875,1.61328125 0.013671875,2.30273437 0.4765625,2.76757812 L5.80859375,7.91015625 L5.80859375,13.0273438 C5.80859375,13.2089844 5.87890625,13.3847656 6.00585937,13.515625 L8.45117187,16.0449219 C8.5859375,16.1855469 8.76953125,16.2597656 8.95703125,16.2597656 C9.04492187,16.2597656 9.13476562,16.2421875 9.22070312,16.2089844 C9.48632812,16.1015625 9.66015625,15.84375 9.66015625,15.5566406 L9.66015625,7.87695312 L14.5136719,2.76953125 C14.9785156,2.3046875 15.1152344,1.61523438 14.8652344,1.0078125 Z M13.5195312,1.7734375 L8.4609375,7.08789062 C8.328125,7.22070313 8.25585938,7.3984375 8.25585938,7.5859375 L8.25585938,13.875 L7.21679688,12.7421875 L7.21679687,7.6171875 C7.21679687,7.43164063 7.14257812,7.25195313 7.01171875,7.12109375 L1.47265625,1.7734375 C1.390625,1.69140625 1.40429688,1.60546875 1.42773438,1.546875 C1.45117188,1.48828125 1.50585938,1.41796875 1.62109375,1.41796875 L13.3730469,1.41796875 C13.4882812,1.41796875 13.5410156,1.48828125 13.5664062,1.546875 C13.5898437,1.60546875 13.6015625,1.69335938 13.5195312,1.7734375 Z" id="Shape"></path>
                </g>
            </g>
        </g>
    </g>
</svg>