<?xml version="1.0" encoding="UTF-8"?>
<svg width="16px" height="13px" viewBox="0 0 16 13" version="1.1" xmlns="http://www.w3.org/2000/svg" xmlns:xlink="http://www.w3.org/1999/xlink">
    <!-- Generator: Sketch 49 (51002) - http://www.bohemiancoding.com/sketch -->
    <!-- <title>流程</title> -->
    <desc>Created with Sketch.</desc>
    <defs></defs>
    <g id="秦剑" stroke="none" stroke-width="1" fill="none" fill-rule="evenodd">
        <g id="63.运维审批" transform="translate(-25.000000, -208.000000)" fill="#A5ACB3" fill-rule="nonzero">
            <g id="Group-6" transform="translate(0.000000, 188.000000)">
                <g id="流程" transform="translate(25.000000, 20.000000)">
                    <path d="M9.06659394,0 L6.93340607,0 C6.04972953,0 5.33333334,0.67162935 5.33333334,1.49997222 C5.33333334,2.32831509 6.04972953,2.99994445 6.93340607,2.99994445 L9.06659394,2.99994445 C9.95027047,2.99994445 10.6666667,2.32831509 10.6666667,1.49997222 C10.6666667,0.67162935 9.95027047,0 9.06659394,0 Z M9.06659394,2.00044442 L6.93340607,2.00044442 C6.63957453,2.00044442 6.39956362,1.7751236 6.39956362,1.49997222 C6.39956362,1.22554302 6.63957453,1.0002222 6.93340607,1.0002222 L9.06659394,1.0002222 C9.36042548,1.0002222 9.60043639,1.22554302 9.60043639,1.49997222 C9.60043639,1.7751236 9.36042548,2.00044442 9.06659394,2.00044442 Z M9.06659394,5.00038887 L6.93340607,5.00038887 C6.04972953,5.00038887 5.33333334,5.67201822 5.33333334,6.4996389 C5.33333334,7.32870395 6.04972953,7.99961113 6.93340607,7.99961113 L9.06659394,7.99961113 C9.95027047,7.99961113 10.6666667,7.32870395 10.6666667,6.4996389 C10.6666667,5.67201822 9.95027047,5.00038887 9.06659394,5.00038887 Z M9.06659394,7.0001111 L6.93340607,7.0001111 C6.63957453,7.0001111 6.39956362,6.77479028 6.39956362,6.4996389 C6.39956362,6.2252097 6.63957453,5.99988889 6.93340607,5.99988889 L9.06659394,5.99988889 C9.36042548,5.99988889 9.60043639,6.2252097 9.60043639,6.4996389 C9.60043639,6.77479028 9.36042548,7.0001111 9.06659394,7.0001111 Z M9.06659394,9.99933337 L6.93340607,9.99933337 C6.04972953,9.99933337 5.33333334,10.6716849 5.33333334,11.5000278 C5.33333334,12.3283706 6.04972953,13 6.93340607,13 L9.06659394,13 C9.95027047,13 10.6666667,12.3283706 10.6666667,11.5000278 C10.6666667,10.6716849 9.95027047,9.99933337 9.06659394,9.99933337 Z M9.06659394,11.9997778 L6.93340607,11.9997778 C6.63957453,11.9997778 6.39956362,11.774457 6.39956362,11.5000278 C6.39956362,11.2248764 6.63957453,10.9995556 6.93340607,10.9995556 L9.06659394,10.9995556 C9.36042548,10.9995556 9.60043639,11.2248764 9.60043639,11.5000278 C9.60043639,11.774457 9.36042548,11.9997778 9.06659394,11.9997778 Z M3.19941816,10.9995556 C2.62921042,10.9995556 2.09391337,10.7915671 1.69025866,10.4145881 C1.28878586,10.0361647 1.06623029,9.53497027 1.06623029,8.99983333 C1.06623029,8.4646964 1.28878586,7.96350202 1.69025866,7.58507861 C2.09391337,7.20665519 2.62921042,7.0001111 3.19941816,7.0001111 L4.26637575,7.0001111 L4.26637575,5.99988889 L3.19941816,5.99988889 C1.43279241,5.99988889 0,7.3431476 0,8.99983333 C0,10.6565191 1.43279241,11.9997778 3.19941816,11.9997778 L3.19941816,13 L4.8002182,11.5000278 L3.19941816,9.99933337 L3.19941816,10.9995556 Z M12.8005819,1.0002222 L11.7336243,1.0002222 L11.7336243,2.00044442 L12.8005819,2.00044442 C13.3707896,2.00044442 13.9053593,2.20843286 14.3097414,2.58541192 C14.7133961,2.96383534 14.9337697,3.46502972 14.9337697,4.00016665 C14.9337697,4.53530359 14.7112142,5.03649796 14.3097414,5.41492139 C13.9053593,5.79190044 13.3707896,5.99988889 12.8005819,5.99988889 L12.8005819,5.00038887 L11.1997818,6.4996389 L12.8005819,7.99961113 L12.8005819,7.0001111 C14.5672076,7.0001111 16,5.65685239 16,4.00016665 C16,2.34348092 14.5672076,1.0002222 12.8005819,1.0002222 Z" id="Shape"></path>
                </g>
            </g>
        </g>
    </g>
</svg>