<?xml version="1.0" encoding="UTF-8"?>
<svg width="14px" height="12px" viewBox="0 0 14 12" version="1.1" xmlns="http://www.w3.org/2000/svg" xmlns:xlink="http://www.w3.org/1999/xlink">
    <!-- Generator: Sketch 49 (51002) - http://www.bohemiancoding.com/sketch -->
    <title>Group 42 Copy</title>
    <desc>Created with Sketch.</desc>
    <defs></defs>
    <g id="秦剑" stroke="none" stroke-width="1" fill="none" fill-rule="evenodd">
        <g id="63.运维审批" transform="translate(-24.000000, -263.000000)" stroke="#A5ACB3">
            <g id="Group-2" transform="translate(-2.000000, 242.000000)">
                <g id="Group-42-Copy" transform="translate(26.000000, 21.000000)">
                    <path d="M6.6236086,1.28792479 C6.47785838,1.17460688 6.46443339,1.16416921 6.29394749,1.0316198 C6.15515368,0.923710364 6.15515368,0.923710364 6.01635987,0.815800924 C5.75309781,0.611119884 5.42913703,0.5 5.09566853,0.5 L1.75,0.5 C1.06580187,0.5 0.5,1.09688988 0.5,1.84615385 L0.5,10.1538462 C0.5,10.9031101 1.06580187,11.5 1.75,11.5 L12.25,11.5 C12.9341981,11.5 13.5,10.9031101 13.5,10.1538462 L13.5,3.55160148 C13.5,3.27545911 13.2761424,3.05160148 13,3.05160148 L9.36223935,3.05160148 C9.0897561,3.05160148 8.8102934,2.97740951 8.5224141,2.84308171 C8.17181408,2.6794877 7.81414197,2.42952698 7.45246915,2.11585096 C7.23351463,1.92595341 7.02605931,1.72381533 6.83566864,1.52166612 C6.74542403,1.425848 6.67372627,1.3459197 6.6236086,1.28792479 Z" id="Combined-Shape"></path>
                    <path d="M8,6 L13,6" id="Path-6"></path>
                </g>
            </g>
        </g>
    </g>
</svg>