<?xml version="1.0" encoding="UTF-8"?>
<svg width="14px" height="12px" viewBox="0 0 14 12" version="1.1" xmlns="http://www.w3.org/2000/svg" xmlns:xlink="http://www.w3.org/1999/xlink">
    <!-- Generator: Sketch 49 (51002) - http://www.bohemiancoding.com/sketch -->
    <!-- <title>Group 9 Copy 2</title> -->
    <desc>Created with Sketch.</desc>
    <defs></defs>
    <g id="陈杰" stroke="none" stroke-width="1" fill="none" fill-rule="evenodd">
        <g id="15.任务列表-文件分发样式1" transform="translate(-450.000000, -301.000000)" fill-rule="nonzero">
            <g id="Group-78-Copy-2" transform="translate(403.000000, 64.000000)">
                <g id="Group-34" transform="translate(25.000000, 103.000000)">
                    <g id="Group-32">
                        <g id="Group-9-Copy-2" transform="translate(22.000000, 134.000000)">
                            <path d="M13.1243891,4.49386872 C13.7067839,4.55979001 14.1155539,5.14326361 13.9706388,5.740763 L12.7128848,10.9022602 C12.6021478,11.351086 12.2084161,11.6666667 11.7572653,11.6666667 L0.984329184,11.6666667 C0.969290821,11.6666667 0.954252459,11.6652641 0.939214096,11.6652641 L0.931011353,11.6652641 C0.915972991,11.6652641 0.902301752,11.6638615 0.887263389,11.6624589 C0.884529142,11.6610563 0.883162018,11.6610563 0.88042777,11.6610563 C0.715005782,11.6442254 0.564622157,11.5839144 0.436112513,11.4955518 C0.43474539,11.4955518 0.43474539,11.4941492 0.433378266,11.4941492 C0.422441275,11.4857338 0.41013716,11.4773183 0.399200169,11.4689028 C0.396465921,11.4675002 0.393731674,11.464695 0.390997426,11.4632925 C0.381427559,11.454877 0.371857692,11.4478641 0.363654948,11.4408512 C0.358186453,11.4366434 0.354085081,11.4324357 0.348616586,11.4282279 C0.344515214,11.4240202 0.339046719,11.4184099 0.333578223,11.4142021 C0.322641232,11.4043841 0.313071365,11.394566 0.302134374,11.3847479 L0.299400127,11.3819428 C0.188663094,11.2725415 0.103901414,11.1378937 0.0533178308,10.986415 L0.0533178308,10.9850124 C0.0478493353,10.9709866 0.0437479637,10.9569608 0.0396465921,10.9415324 L0.0355452205,10.9247015 C0.0341780967,10.9176885 0.0314438489,10.9106756 0.0300767251,10.9036627 C0.0273424773,10.8924421 0.0246082296,10.8798189 0.0218739819,10.8685982 C0.020506858,10.8657931 0.020506858,10.8615853 0.0191397341,10.8573776 C0.0164054864,10.8433518 0.0150383625,10.829326 0.0123041148,10.8153002 C0.0109369909,10.8138976 0.0109369909,10.8110924 0.0109369909,10.8096898 C0.0041013716,10.7620021 0,10.7129118 0,10.6638214 L0,1.00985814 C0,0.451631001 0.440213885,0 0.984329184,0 L5.40560777,0 C5.83488466,0 6.21357797,0.283321311 6.34345474,0.702692955 L6.68523571,1.79530336 L12.1400599,1.79530336 C12.6841752,1.79530336 13.1243891,2.24693436 13.1243891,2.8051615 L13.1243891,4.49386872 Z M11.7572653,10.6596137 L0.984329184,10.6596137 L2.24208314,5.49811653 L13.0150192,5.49811653 L11.7572653,10.6596137 Z" id="Shape" fill="#545454"></path>
                            <path d="M3.27196878,5.56781436 L1.91108523,10.6079429 C1.84809984,10.8412137 1.60793673,10.9792573 1.37466591,10.9162719 C1.14139508,10.8532866 1.00335146,10.6131235 1.06633684,10.3798526 L2.51455634,5.01626924 C2.56609236,4.82540193 2.739228,4.69281436 2.93693053,4.69281436 L12.6100203,4.69281436 C12.8516449,4.69281436 13.0475203,4.88868978 13.0475203,5.13031436 C13.0475203,5.37193894 12.8516449,5.56781436 12.6100203,5.56781436 L3.27196878,5.56781436 Z" id="Path-2" fill="#FFFFFF"></path>
                        </g>
                    </g>
                </g>
            </g>
        </g>
    </g>
</svg>