<?xml version="1.0" encoding="UTF-8"?>
<svg width="16px" height="16px" viewBox="0 0 16 16" version="1.1" xmlns="http://www.w3.org/2000/svg" xmlns:xlink="http://www.w3.org/1999/xlink">
    <!-- Generator: Sketch 50.2 (55047) - http://www.bohemiancoding.com/sketch -->
    <!-- <title>Group</title> -->
    <desc>Created with Sketch.</desc>
    <defs></defs>
    <g id="小雪" stroke="none" stroke-width="1" fill="none" fill-rule="evenodd" fill-opacity="0.45">
        <g id="49-主机组管理" transform="translate(-442.000000, -504.000000)" fill="#000000">
            <g id="Group-29" transform="translate(384.000000, 284.000000)">
                <g id="Group-31" transform="translate(58.000000, 217.000000)">
                    <g id="Group" transform="translate(0.000000, 3.000000)">
                        <path d="M0.959554905,3.5261142 L15.0326676,3.5261142 L15.0326676,0.967355783 L0.959554905,0.967355783 L0.959554905,3.5261142 Z M0.639742313,0.00780087848 L15.3524802,0.00780087848 C15.7043397,0.00780087848 15.9922225,0.295683748 15.9922225,0.647543192 L15.9922225,3.84592679 C15.9922225,4.19778624 15.7043397,4.48566911 15.3524802,4.48566911 L0.639742313,4.48566911 C0.28788287,4.48566911 0,4.19778624 0,3.84592679 L0,0.647543192 C0,0.295683748 0.28788287,0.00780087848 0.639742313,0.00780087848 Z M0.959554905,15.0404685 L15.0326676,15.0404685 L15.0326676,12.4817335 L0.959554905,12.4817335 L0.959554905,15.0404685 Z M0.639742313,11.5221786 L15.3524802,11.5221786 C15.7043397,11.5221786 15.9922225,11.8100615 15.9922225,12.1618975 L15.9922225,15.3603045 C15.9922225,15.7121406 15.7043397,16.0000234 15.3524802,16.0000234 L0.639742313,16.0000234 C0.28788287,16.0000234 0,15.7121406 0,15.3603045 L0,12.1618975 C0,11.8100615 0.28788287,11.5221786 0.639742313,11.5221786 Z M0.959554905,9.28325622 L15.0326676,9.28325622 L15.0326676,6.7244978 L0.959554905,6.7244978 L0.959554905,9.28325622 Z M0.639742313,5.7650366 L15.3524802,5.7650366 C15.7043397,5.7650366 15.9922225,6.05282577 15.9922225,6.40468521 L15.9922225,9.60316252 C15.9922225,9.95492826 15.7043397,10.2428111 15.3524802,10.2428111 L0.639742313,10.2428111 C0.28788287,10.2428111 0,9.95492826 0,9.60316252 L0,6.40468521 C0,6.05282577 0.28788287,5.7650366 0.639742313,5.7650366 Z" id="Fill-1"></path>
                        <path d="M13.4334641,1.60700439 L14.0731127,1.60700439 C14.265019,1.60700439 14.3929253,1.73493411 14.3929253,1.92691069 L14.3929253,2.5665593 C14.3929253,2.75844217 14.265019,2.88637189 14.0731127,2.88637189 L13.4334641,2.88637189 C13.2414876,2.88637189 13.1135578,2.75844217 13.1135578,2.5665593 L13.1135578,1.92691069 C13.1135578,1.73493411 13.2414876,1.60700439 13.4334641,1.60700439 Z M13.4334641,7.36424012 L14.0731127,7.36424012 C14.265019,7.36424012 14.3929253,7.49216984 14.3929253,7.68405271 L14.3929253,8.32379502 C14.3929253,8.51567789 14.265019,8.64360761 14.0731127,8.64360761 L13.4334641,8.64360761 C13.2414876,8.64360761 13.1135578,8.51567789 13.1135578,8.32379502 L13.1135578,7.68405271 C13.1135578,7.49216984 13.2414876,7.36424012 13.4334641,7.36424012 Z M13.4334641,13.1213587 L14.0731127,13.1213587 C14.265019,13.1213587 14.3929253,13.2492884 14.3929253,13.4412884 L14.3929253,14.0809136 C14.3929253,14.2728199 14.265019,14.4007496 14.0731127,14.4007496 L13.4334641,14.4007496 C13.2414876,14.4007496 13.1135578,14.2728199 13.1135578,14.0809136 L13.1135578,13.4412884 C13.1135578,13.2492884 13.2414876,13.1213587 13.4334641,13.1213587 Z" id="Fill-2"></path>
                    </g>
                </g>
            </g>
        </g>
    </g>
</svg>