<?xml version="1.0" encoding="UTF-8"?>
<svg width="65px" height="67px" viewBox="0 0 65 67" version="1.1" xmlns="http://www.w3.org/2000/svg" xmlns:xlink="http://www.w3.org/1999/xlink">
    <!-- Generator: Sketch 50.2 (55047) - http://www.bohemiancoding.com/sketch -->
    <title>退出</title>
    <desc>Created with Sketch.</desc>
    <defs>
        <filter x="-18.8%" y="-36.2%" width="137.6%" height="193.6%" filterUnits="objectBoundingBox" id="filter-1">
            <feOffset dx="0" dy="10" in="SourceAlpha" result="shadowOffsetOuter1"></feOffset>
            <feGaussianBlur stdDeviation="13" in="shadowOffsetOuter1" result="shadowBlurOuter1"></feGaussianBlur>
            <feColorMatrix values="0 0 0 0 0.248862583   0 0 0 0 0.305040158   0 0 0 0 0.351854804  0 0 0 0.140341938 0" type="matrix" in="shadowBlurOuter1" result="shadowMatrixOuter1"></feColorMatrix>
            <feMerge>
                <feMergeNode in="shadowMatrixOuter1"></feMergeNode>
                <feMergeNode in="SourceGraphic"></feMergeNode>
            </feMerge>
        </filter>
        <polygon id="path-2" points="0.00124260355 0.0168372781 13.9846332 0.0168372781 13.9846332 16.9822485 0.00124260355 16.9822485"></polygon>
    </defs>
    <g id="小雪" stroke="none" stroke-width="1" fill="none" fill-rule="evenodd">
        <g id="78-交互" transform="translate(-319.000000, -133.000000)">
            <g id="Popup-/-Settings-Copy" filter="url(#filter-1)" transform="translate(320.000000, 87.000000)">
                <g id="Popup-/-Settings">
                    <g id="Stacked" transform="translate(0.000000, 6.000000)">
                        <g id="Menu" transform="translate(0.000000, 41.000000)">
                            <g id="退出" transform="translate(24.000000, 14.000000)">
                                <mask id="mask-3" fill="white">
                                    <use xlink:href="#path-2"></use>
                                </mask>
                                <g id="Clip-2"></g>
                                <path d="M6.76166864,7.70480473 C6.21892012,7.70480473 5.77738166,8.06147337 5.77738166,8.50011243 C5.77738166,8.93866864 6.21892012,9.29533728 6.76166864,9.29533728 C7.30102071,9.29533728 7.73990828,8.93850296 7.73990828,8.50011243 C7.73990828,8.06163905 7.30102071,7.70480473 6.76166864,7.70480473 Z M12.3080089,0.017147929 L1.66771893,0.017147929 C0.755668639,0.017147929 0.0860710059,0.534837278 0.00153254438,1.30603846 L0,1.32221302 L0,15.5521361 C0,16.3942071 0.685772189,16.9822485 1.66771893,16.9822485 L12.3080089,16.9822485 C13.2325888,16.9822485 13.9846331,16.3893402 13.9846331,15.6605325 L13.9846331,1.33799408 C13.9847988,0.609497041 13.2325888,0.0168372781 12.3080089,0.0168372781 L12.3080089,0.017147929 Z M8.41435207,15.4303817 C9.28473373,15.2855769 9.94115976,14.6505858 9.94115976,13.9534852 L9.94115976,3.04551775 C9.94115976,2.34752663 9.28506509,1.7129497 8.41410355,1.56911834 L3.19686686,0.864727811 L12.307926,0.864727811 C12.4566864,0.864727811 12.7938047,0.921286982 13.0050266,1.13518047 C13.1205473,1.2509497 13.1818698,1.41006509 13.1740207,1.57340533 L13.1740207,15.4266538 C13.1807308,15.5876331 13.1192633,15.7440148 13.0047781,15.8573609 C12.8044083,16.0603402 12.478287,16.1340266 12.3080089,16.1340266 L3.19728107,16.1340266 L8.41435207,15.4300503 L8.41435207,15.4303817 Z M9.15571006,13.9829349 C9.15571006,14.1241775 8.75428698,14.5935503 8.46312426,14.6437101 L0.90283432,15.7300976 L0.90283432,1.30659763 L8.46014201,2.35473373 C8.75347929,2.40576331 9.15602071,2.87546746 9.15602071,3.01648225 L9.15602071,13.9829349 L9.15571006,13.9829349 Z" id="Fill-1" fill="#889099" mask="url(#mask-3)"></path>
                            </g>
                        </g>
                    </g>
                </g>
            </g>
        </g>
    </g>
</svg>