<?xml version="1.0" encoding="UTF-8"?>
<svg width="16px" height="17px" viewBox="0 0 16 17" version="1.1" xmlns="http://www.w3.org/2000/svg" xmlns:xlink="http://www.w3.org/1999/xlink">
    <!-- Generator: Sketch 50.2 (55047) - http://www.bohemiancoding.com/sketch -->
    <!-- <title>Group</title> -->
    <desc>Created with Sketch.</desc>
    <defs>
        <polygon id="path-1" points="0.00121518987 0.0162025316 15.9988051 0.0162025316 15.9988051 16.6075747 0.00121518987 16.6075747"></polygon>
    </defs>
    <g id="小雪" stroke="none" stroke-width="1" fill="none" fill-rule="evenodd">
        <g id="00-资源管理-dashboard" transform="translate(-1085.000000, -282.000000)">
            <g id="Group-27" transform="translate(1049.000000, 262.000000)">
                <g id="Triangle-Pattern">
                    <g id="Group" transform="translate(36.000000, 20.000000)">
                        <mask id="mask-2" fill="white">
                            <use xlink:href="#path-1"></use>
                        </mask>
                        <g id="Clip-2"></g>
                        <path d="M1.53591899,14.8848 L14.3349671,14.8848 L14.3349671,13.7998177 L1.53591899,13.7998177 L1.53591899,14.8848 Z M0.479979747,16.6075747 L15.4549063,16.6075747 L15.4549063,15.5226127 L0.479979747,15.5226127 L0.479979747,16.6075747 Z M3.6476962,13.1616203 L3.6476962,7.99278987 C3.6476962,5.5964962 5.59635443,3.65354937 7.99945316,3.65354937 C10.4022076,3.65354937 12.3511089,5.5964962 12.3511089,7.99278987 L12.3511089,13.1619241 L3.6476962,13.1619241 L3.6476962,13.1616203 Z M7.45545316,2.37751899 L8.5433519,2.37751899 L8.5433519,0.0162025316 L7.45545316,0.0162025316 L7.45545316,2.37751899 Z M0,8.53527089 L2.36779747,8.53527089 L2.36779747,7.45030886 L0,7.45030886 L0,8.53527089 Z M13.6310076,8.53527089 L15.9988051,8.53527089 L15.9988051,7.45030886 L13.6310076,7.45030886 L13.6310076,8.53527089 Z M2.72633924,1.96714937 L4.40087089,3.64143797 L3.63353924,4.40876962 L1.95957468,2.73423797 L2.72633924,1.96714937 Z M13.2678076,1.96777722 L14.0371848,2.73693165 L12.3677165,4.4067038 L11.5985823,3.63724557 L13.2680304,1.96777722 L13.2678076,1.96777722 Z M6.40901266,9.29762025 C6.37705316,9.39357975 6.44097215,9.45757975 6.54027342,9.45757975 L7.49723544,9.45757975 C7.62491139,9.45757975 7.68893165,9.55299241 7.65719494,9.64870886 L7.3372557,11.2121722 C7.2729519,11.6268759 7.4009519,11.6908759 7.62491139,11.3398481 L9.57057215,8.56731139 C9.63457215,8.50331139 9.60253165,8.43961519 9.47461266,8.40757468 L8.26195443,8.37561519 C8.16589367,8.37561519 8.13393418,8.31193924 8.16589367,8.21620253 L8.83465316,6.6208 C8.89865316,6.52506329 8.83465316,6.46136709 8.73861266,6.46136709 L7.68599494,6.46136709 C7.58995443,6.46136709 7.46195443,6.52506329 7.42997468,6.6208 L6.40901266,9.29792405 L6.40901266,9.29762025 Z" id="Fill-1" fill="#FFFFFF" mask="url(#mask-2)"></path>
                    </g>
                </g>
            </g>
        </g>
    </g>
</svg>