<?xml version="1.0" encoding="UTF-8"?>
<svg width="12px" height="17px" viewBox="0 0 12 17" version="1.1" xmlns="http://www.w3.org/2000/svg" xmlns:xlink="http://www.w3.org/1999/xlink">
    <!-- Generator: Sketch 50.2 (55047) - http://www.bohemiancoding.com/sketch -->
    <title>Group</title>
    <desc>Created with Sketch.</desc>
    <defs>
        <polygon id="path-1" points="0.00119402985 0.0190248756 11.9976716 0.0190248756 11.9976716 16.0596816 0.00119402985 16.0596816"></polygon>
    </defs>
    <g id="小雪" stroke="none" stroke-width="1" fill="none" fill-rule="evenodd">
        <g id="00-资源管理-dashboard" transform="translate(-333.000000, -282.000000)">
            <g id="Group" transform="translate(333.000000, 282.000000)">
                <mask id="mask-2" fill="white">
                    <use xlink:href="#path-1"></use>
                </mask>
                <g id="Clip-2"></g>
                <path d="M10.7909652,0.0190248756 L1.20670647,0.0190248756 C0.542985075,0.0190248756 0,0.56200995 0,1.22573134 L0,14.8529751 C0,15.5166965 0.542985075,16.0596816 1.20670647,16.0596816 L10.7909652,16.0596816 C11.4546866,16.0596816 11.9976716,15.5166965 11.9976716,14.8529751 L11.9976716,1.22573134 C11.9976716,0.56200995 11.4546866,0.0190248756 10.7909652,0.0190248756 Z M5.99882587,11.5785672 C5.18220896,11.5785672 4.52021891,10.9164975 4.52021891,10.0998806 C4.52021891,9.28326368 5.18220896,8.62117413 5.99882587,8.62117413 C6.81552239,8.62117413 7.47753234,9.28326368 7.47753234,10.0998806 C7.47753234,10.9164975 6.81552239,11.5785672 5.99882587,11.5785672 Z M10.0982687,6.04063682 C10.0982687,6.58284577 9.65462687,7.02648756 9.11247761,7.02648756 L2.88517413,7.02648756 C2.34304478,7.02648756 1.89940299,6.58284577 1.89940299,6.04063682 C1.89940299,5.49850746 2.34304478,5.05486567 2.88517413,5.05486567 L9.11247761,5.05486567 C9.65468657,5.05486567 10.0982687,5.49850746 10.0982687,6.04063682 Z M10.0982687,2.99500498 C10.0982687,3.53721393 9.65462687,3.98077612 9.11247761,3.98077612 L2.88517413,3.98077612 C2.34304478,3.98077612 1.89940299,3.53721393 1.89940299,2.99500498 C1.89940299,2.45279602 2.34304478,2.00923383 2.88517413,2.00923383 L9.11247761,2.00923383 C9.65468657,2.00923383 10.0982687,2.45279602 10.0982687,2.99500498 Z" id="Fill-1" fill="#FFFFFF" mask="url(#mask-2)"></path>
            </g>
        </g>
    </g>
</svg>