<?xml version="1.0" encoding="UTF-8"?>
<svg width="62px" height="65px" viewBox="0 0 62 65" version="1.1" xmlns="http://www.w3.org/2000/svg" xmlns:xlink="http://www.w3.org/1999/xlink">
    <!-- Generator: Sketch 50.2 (55047) - http://www.bohemiancoding.com/sketch -->
    <title>基本信息</title>
    <desc>Created with Sketch.</desc>
    <defs>
        <filter x="-18.8%" y="-36.2%" width="137.6%" height="193.6%" filterUnits="objectBoundingBox" id="filter-1">
            <feOffset dx="0" dy="10" in="SourceAlpha" result="shadowOffsetOuter1"></feOffset>
            <feGaussianBlur stdDeviation="13" in="shadowOffsetOuter1" result="shadowBlurOuter1"></feGaussianBlur>
            <feColorMatrix values="0 0 0 0 0.248862583   0 0 0 0 0.305040158   0 0 0 0 0.351854804  0 0 0 0.140341938 0" type="matrix" in="shadowBlurOuter1" result="shadowMatrixOuter1"></feColorMatrix>
            <feMerge>
                <feMergeNode in="shadowMatrixOuter1"></feMergeNode>
                <feMergeNode in="SourceGraphic"></feMergeNode>
            </feMerge>
        </filter>
        <polygon id="path-2" points="0.00134328358 0.0211343284 14.9835672 0.0211343284 14.9835672 16.0746045 0.00134328358 16.0746045"></polygon>
    </defs>
    <g id="小雪" stroke="none" stroke-width="1" fill="none" fill-rule="evenodd">
        <g id="78-交互" transform="translate(-320.000000, -91.000000)">
            <g id="Popup-/-Settings-Copy" filter="url(#filter-1)" transform="translate(320.000000, 87.000000)">
                <g id="Popup-/-Settings">
                    <g id="Stacked" transform="translate(0.000000, 6.000000)">
                        <g id="Menu">
                            <g id="基本信息" transform="translate(24.000000, 13.000000)">
                                <mask id="mask-3" fill="white">
                                    <use xlink:href="#path-2"></use>
                                </mask>
                                <g id="Clip-2"></g>
                                <path d="M13.0001614,13.0203962 L2.99999701,13.0203962 C2.44779206,13.0203962 1.99999103,12.5734319 1.99999103,12.0208923 L1.99999103,1.02114031 C1.99999103,0.468600657 2.44779206,0.0211343284 2.99999701,0.0211343284 L13.0001614,0.0211343284 C13.5522826,0.0211343284 14,0.468600657 14,1.02114031 L14,12.0208923 C14,12.5734319 13.5523663,13.0203962 13.0001614,13.0203962 Z M13.0001614,1.52113283 C13.0001614,1.24494668 12.776355,1.02114031 12.5001479,1.02114031 L3.50007321,1.02114031 C3.22380339,1.02114031 2.99999701,1.24494668 2.99999701,1.52113283 L2.99999701,11.5208788 C2.99999701,11.7967512 3.22380339,12.0208923 3.50007321,12.0208923 L12.5001479,12.0208923 C12.776355,12.0208923 13.0001614,11.7967512 13.0001614,11.5208788 L13.0001614,1.52113283 Z M11.4999955,10.0211313 L4.50007919,10.0211313 C4.22380937,10.0211313 4.00008666,9.79699027 4.00008666,9.52046942 C4.00008666,9.24453429 4.22380937,9.02047689 4.50007919,9.02047689 L11.4999955,9.02047689 C11.7761817,9.02047689 11.999988,9.24453429 11.999988,9.52046942 C11.999988,9.79699027 11.7761817,10.0211313 11.4999955,10.0211313 Z M11.4999955,7.02063229 L4.50007919,7.02063229 C4.22380937,7.02063229 4.00008666,6.79657489 4.00008666,6.52063976 C4.00008666,6.2447883 4.22380937,6.02064723 4.50007919,6.02064723 L11.4999955,6.02064723 C11.7761817,6.02064723 11.999988,6.2447883 11.999988,6.52063976 C11.999988,6.79657489 11.7761817,7.02063229 11.4999955,7.02063229 Z M8.50008218,4.02071895 L4.50007919,4.02071895 C4.22389304,4.02071895 4.00008666,3.79707992 4.00008666,3.5210402 C4.00008666,3.24454027 4.22389304,3.02088032 4.50007919,3.02088032 L8.50016585,3.02088032 C8.776352,3.02088032 8.99999103,3.24454027 8.99999103,3.5210402 C8.99990736,3.79707992 8.776352,4.02071895 8.50008218,4.02071895 Z M12.0001554,15.0208056 L1.00000598,15.0208056 C0.447780105,15.0208056 0,14.5730883 0,14.0203185 L0,3.02088032 C0,2.46850802 0.447780105,2.02137638 1.00000598,2.02137638 L1.00000598,14.0203185 L13.0001614,14.0203185 C13.0001614,14.5730883 12.552444,15.0208056 12.0001554,15.0208056 Z" id="Fill-1" fill="#889099" mask="url(#mask-3)"></path>
                            </g>
                        </g>
                    </g>
                </g>
            </g>
        </g>
    </g>
</svg>