<?xml version="1.0" encoding="UTF-8"?>
<svg width="15px" height="15px" viewBox="0 0 15 15" version="1.1" xmlns="http://www.w3.org/2000/svg" xmlns:xlink="http://www.w3.org/1999/xlink">
    <!-- Generator: Sketch 50.2 (55047) - http://www.bohemiancoding.com/sketch -->
    <title>Group</title>
    <desc>Created with Sketch.</desc>
    <defs>
        <polygon id="path-1" points="0.00109756098 0.0146341463 14.9927195 0.0146341463 14.9927195 14.9999817 0.00109756098 14.9999817"></polygon>
    </defs>
    <g id="小雪" stroke="none" stroke-width="1" fill="none" fill-rule="evenodd">
        <g id="66-超级管理员" transform="translate(-23.000000, -147.000000)">
            <g id="Group" transform="translate(23.000000, 147.000000)">
                <g id="Group-3">
                    <mask id="mask-2" fill="white">
                        <use xlink:href="#path-1"></use>
                    </mask>
                    <g id="Clip-2"></g>
                    <path d="M2.88001829,11.4585732 C3.24587195,11.4585732 3.54442683,11.7556098 3.54442683,12.1214634 L3.54442683,13.7107134 C3.54442683,14.0765671 3.24587195,14.3736768 2.88001829,14.3736768 L1.28926829,14.3736768 C0.923414634,14.3736768 0.624878049,14.0765671 0.624878049,13.7107134 L0.624878049,12.1214634 C0.624878049,11.7556098 0.923414634,11.4585732 1.28926829,11.4585732 L2.88001829,11.4585732 Z M2.88001829,10.835122 L1.28926829,10.835122 C0.578085366,10.835122 0,11.411689 0,12.1229634 L0,13.7122134 C0,14.4234146 0.576585366,14.9999817 1.28926829,14.9999817 L2.88001829,14.9999817 C3.59121951,14.9999817 4.16930488,14.4234146 4.16930488,13.7122134 L4.16930488,12.1214634 C4.16930488,11.4102622 3.59121951,10.835122 2.88001829,10.835122 Z M8.29172561,11.4585732 C8.65757927,11.4585732 8.95613415,11.7556098 8.95613415,12.1214634 L8.95613415,13.7107134 C8.95613415,14.0765671 8.65757927,14.3736768 8.29172561,14.3736768 L6.70097561,14.3736768 C6.33512195,14.3736768 6.03658537,14.0765671 6.03658537,13.7107134 L6.03658537,12.1214634 C6.03658537,11.7556098 6.33512195,11.4585732 6.70097561,11.4585732 L8.29172561,11.4585732 Z M8.29172561,10.835122 L6.70097561,10.835122 C5.98977439,10.835122 5.41170732,11.411689 5.41170732,12.1229634 L5.41170732,13.7122134 C5.41170732,14.4234146 5.98827439,14.9999817 6.70097561,14.9999817 L8.29172561,14.9999817 C9.00292683,14.9999817 9.5810122,14.4234146 9.5810122,13.7122134 L9.5810122,12.1214634 C9.5810122,11.4102622 9.00292683,10.835122 8.29172561,10.835122 Z M8.29172561,0.638012195 C8.65757927,0.638012195 8.95613415,0.935121951 8.95613415,1.30097561 L8.95613415,2.89022561 C8.95613415,3.25607927 8.65757927,3.55318902 8.29172561,3.55318902 L6.70097561,3.55318902 C6.33512195,3.55318902 6.03658537,3.25607927 6.03658537,2.89022561 L6.03658537,1.30240244 C6.03658537,0.93654878 6.33512195,0.639512195 6.70097561,0.639512195 L8.29172561,0.639512195 L8.29172561,0.638012195 Z M8.29172561,0.0146341463 L6.70097561,0.0146341463 C5.98977439,0.0146341463 5.41170732,0.591219512 5.41170732,1.30240244 L5.41170732,2.89172561 C5.41170732,3.60292683 5.98827439,4.1795122 6.70097561,4.1795122 L8.29172561,4.1795122 C9.00292683,4.1795122 9.5810122,3.60292683 9.5810122,2.89172561 L9.5810122,1.30240244 C9.5810122,0.591219512 9.00292683,0.0146341463 8.29172561,0.0146341463 Z M13.7034329,11.4585732 C14.0692866,11.4585732 14.3678232,11.7556098 14.3678232,12.1214634 L14.3678232,13.7107134 C14.3678232,14.0765671 14.0692866,14.3736768 13.7034329,14.3736768 L12.1126829,14.3736768 C11.7468293,14.3736768 11.4482927,14.0765671 11.4482927,13.7107134 L11.4482927,12.1214634 C11.4482927,11.7556098 11.7468293,11.4585732 12.1126829,11.4585732 L13.7034329,11.4585732 Z M13.7034329,10.835122 L12.1126829,10.835122 C11.4014817,10.835122 10.8234146,11.411689 10.8234146,12.1229634 L10.8234146,13.7122134 C10.8234146,14.4234146 11.3999817,14.9999817 12.1126829,14.9999817 L13.7034329,14.9999817 C14.4146341,14.9999817 14.9927195,14.4234146 14.9927195,13.7122134 L14.9927195,12.1214634 C14.9927195,11.4102622 14.416061,10.835122 13.7034329,10.835122 Z M2.06928659,9.93219512 L2.06928659,8.17752439 C2.06928659,7.83367683 2.3487439,7.55414634 2.69416463,7.55414634 L12.2590244,7.55414634 C12.6029451,7.55414634 12.8839024,7.83367683 12.8839024,8.17752439 L12.8839024,9.93219512 L13.5087805,9.93219512 L13.5087805,8.17752439 C13.5087805,7.48827439 12.9497927,6.92926829 12.2590244,6.92926829 L2.69416463,6.92926829 C2.00341463,6.92926829 1.44440854,7.48827439 1.44440854,8.17752439 L1.44440854,9.93219512 L2.06928659,9.93219512 Z" id="Fill-1" stroke="#FFFFFF" stroke-width="0.3" fill="#FFFFFF" mask="url(#mask-2)"></path>
                </g>
                <polygon id="Fill-4" stroke="#FFFFFF" stroke-width="0.3" fill="#FFFFFF" points="7.18388415 9.93071341 7.8087622 9.93071341 7.8087622 5.01804878 7.18388415 5.01804878"></polygon>
            </g>
        </g>
    </g>
</svg>