<?xml version="1.0" encoding="UTF-8"?>
<svg width="14px" height="13px" viewBox="0 0 14 13" version="1.1" xmlns="http://www.w3.org/2000/svg" xmlns:xlink="http://www.w3.org/1999/xlink">
    <!-- Generator: Sketch 49 (51002) - http://www.bohemiancoding.com/sketch -->
    <!-- <title>Group 33</title> -->
    <desc>Created with Sketch.</desc>
    <defs></defs>
    <g id="秦剑" stroke="none" stroke-width="1" fill="none" fill-rule="evenodd">
        <g id="63.运维审批" transform="translate(-25.000000, -155.000000)" stroke="#A5ACB3">
            <g id="Group-33" transform="translate(25.000000, 155.000000)">
                <path d="M4.33885979,8 C4.33885979,7.72385763 4.11500216,7.5 3.83885979,7.5 L1,7.5 C0.723857625,7.5 0.5,7.72385763 0.5,8 L0.5,12 C0.5,12.2761424 0.723857625,12.5 1,12.5 L13,12.5 C13.2761424,12.5 13.5,12.2761424 13.5,12 L13.5,8 C13.5,7.72385763 13.2761424,7.5 13,7.5 L10.4320678,7.5 C10.1559254,7.5 9.93206777,7.72385763 9.93206777,8 L9.93206777,9.5 L4.33885979,9.5 L4.33885979,8 Z" id="Combined-Shape"></path>
                <path d="M10.3988508,9.5 L12.5,7.7865991 L12.5,1 C12.5,0.723857625 12.2761424,0.5 12,0.5 L5,0.5 C4.72385763,0.5 4.5,0.723857625 4.5,1 L4.5,9.5 L10.3988508,9.5 Z" id="Rectangle-28"></path>
                <path d="M1.5,7.5 L4.5,7.5 L4.5,3.5 L2,3.5 C1.72385763,3.5 1.5,3.72385763 1.5,4 L1.5,7.5 Z" id="Rectangle-30"></path>
                <path d="M6,3.5 L10,3.5" id="Path-5"></path>
                <path d="M6,5.5 L10,5.5" id="Path-5-Copy"></path>
            </g>
        </g>
    </g>
</svg>