<?xml version="1.0" encoding="UTF-8"?>
<svg width="24px" height="24px" viewBox="0 0 24 24" version="1.1" xmlns="http://www.w3.org/2000/svg" xmlns:xlink="http://www.w3.org/1999/xlink">
    <!-- Generator: Sketch 51.2 (57519) - http://www.bohemiancoding.com/sketch -->
    <!-- <title>Fill 1</title> -->
    <desc>Created with Sketch.</desc>
    <defs></defs>
    <g id="秦剑" stroke="none" stroke-width="1" fill="none" fill-rule="evenodd" fill-opacity="0.65">
        <g id="48.流程管理-新建流程" transform="translate(-776.000000, -494.000000)" fill="#000000">
            <path d="M783.446831,496.918024 C779.679932,498.656461 777.24597,502.437312 777.24597,506.550018 L778.746794,506.550018 C778.746794,503.012212 780.840722,499.759884 784.080738,498.264354 L783.446831,496.918024 Z M797.205257,506.550018 L798.706082,506.550018 C798.706082,502.437312 796.272119,498.656461 792.504809,496.918024 L791.871039,498.264354 C795.11133,499.760156 797.205257,503.012212 797.205257,506.550018 M787.97582,515.686677 C785.836829,515.686677 783.752107,514.945712 782.105789,513.600742 L781.150256,514.74619 C783.06503,516.310947 785.489101,517.172414 787.97582,517.172414 C790.483697,517.172414 792.923979,516.297483 794.846446,514.709196 L793.885006,513.568916 C792.231544,514.934424 790.133083,515.686677 787.97582,515.686677 M797.006045,512.237819 C796.182543,512.237819 795.512777,511.574786 795.512777,510.759698 C795.512777,509.94461 796.182543,509.281441 797.006045,509.281441 C797.82941,509.281441 798.499176,509.944474 798.499176,510.759698 C798.499176,511.574786 797.82941,512.237819 797.006045,512.237819 M797.006045,507.795976 C795.352446,507.795976 794.01209,509.122721 794.01209,510.759698 C794.01209,512.396538 795.352446,513.723556 797.006045,513.723556 C798.659507,513.723556 800,512.396538 800,510.759698 C800,509.122721 798.659507,507.795976 797.006045,507.795976 M778.993955,512.237819 C778.17059,512.237819 777.500687,511.574786 777.500687,510.759698 C777.500687,509.94461 778.170452,509.281441 778.993955,509.281441 C779.817183,509.281441 780.487086,509.944474 780.487086,510.759698 C780.487086,511.574786 779.817183,512.237819 778.993955,512.237819 M778.993955,507.795976 C777.340355,507.795976 776,509.122721 776,510.759698 C776,512.396538 777.340355,513.723556 778.993955,513.723556 C780.647417,513.723556 781.987772,512.396538 781.987772,510.759698 C781.987772,509.122721 780.647417,507.795976 778.993955,507.795976 M787.99684,495.485601 C788.820205,495.485601 789.490108,496.148634 789.490108,496.963722 C789.490108,497.77881 788.820205,498.441979 787.99684,498.441979 C787.173475,498.441979 786.503709,497.778946 786.503709,496.963722 C786.503709,496.148634 787.173475,495.485601 787.99684,495.485601 M787.99684,499.92758 C789.65044,499.92758 790.990658,498.600699 790.990658,496.963722 C790.990658,495.326881 789.65044,494 787.99684,494 C786.343378,494 785.002885,495.326881 785.002885,496.963722 C785.002885,498.600699 786.343378,499.92758 787.99684,499.92758" id="Fill-1"></path>
        </g>
    </g>
</svg>