<?xml version="1.0" encoding="UTF-8"?>
<svg width="24px" height="24px" viewBox="0 0 24 24" version="1.1" xmlns="http://www.w3.org/2000/svg" xmlns:xlink="http://www.w3.org/1999/xlink">
    <!-- Generator: Sketch 49 (51002) - http://www.bohemiancoding.com/sketch -->
    <!-- <title>上移 copy</title> -->
    <desc>Created with Sketch.</desc>
    <defs></defs>
    <g id="秦剑" stroke="none" stroke-width="1" fill="none" fill-rule="evenodd">
        <g id="48.流程管理-新建流程" transform="translate(-709.000000, -493.000000)" fill="#C6C6C6" fill-rule="nonzero">
            <g id="上移-copy" transform="translate(721.000000, 505.000000) scale(1, -1) translate(-721.000000, -505.000000) translate(709.000000, 493.000000)">
                <path d="M23.0565971,7.32880845 C22.4521499,5.89972858 21.5870516,4.61654367 20.4852392,3.51476081 C19.3834268,2.41297795 18.1002124,1.54782059 16.671162,0.943373347 C15.191227,0.317379814 13.6195874,0 11.9999852,0 C10.380383,0 8.8088025,0.317379814 7.32880845,0.943373347 C5.89972858,1.54782059 4.61654367,2.41291892 3.51476081,3.51476081 C2.41297795,4.61654367 1.54782059,5.89978761 0.943373347,7.32880845 C0.317379814,8.80877298 0,10.380383 0,11.9999852 C0,13.6195874 0.317379814,15.191227 0.943373347,16.6711916 C1.54782059,18.1002419 2.41291892,19.3834563 3.51476081,20.4852392 C4.61654367,21.587022 5.89978761,22.4521499 7.32880845,23.0565971 C8.80877298,23.6826202 10.380383,24 11.9999852,24 C13.6195874,24 15.191227,23.6826202 16.671162,23.0565971 C18.1002419,22.4521499 19.3834268,21.5870516 20.4852392,20.4852392 C21.587022,19.3834563 22.4521499,18.1002124 23.0565971,16.6711916 C23.6825907,15.191227 24,13.619617 24,11.9999852 C24,10.3804421 23.6825907,8.8088025 23.0565971,7.32880845 Z M11.9999852,22.280606 C6.33127422,22.280606 1.71942351,17.6687553 1.71942351,12.0000443 C1.71942351,6.33133325 6.33127422,1.71948254 11.9999852,1.71948254 C17.6686963,1.71948254 22.280547,6.33133325 22.280547,12.0000443 C22.280547,17.6687553 17.6687258,22.280606 11.9999852,22.280606 Z" id="Shape"></path>
                <path d="M11.4046722,5.24605195 L6.24555919,10.4149094 C5.91814694,10.7429401 5.91814694,11.2796675 6.24555919,11.6077561 C6.57294253,11.9357578 7.10868701,11.9357578 7.43615707,11.6077561 L11.1402394,7.89664858 L11.1402394,18.1565546 C11.1402394,18.6204539 11.5190699,19 11.9820946,19 C12.4451194,19 12.8239499,18.6204539 12.8239499,18.1565546 L12.8239499,7.86079919 L16.5638429,11.6077561 C16.8912552,11.9357578 17.4269708,11.9357578 17.7544408,11.6077561 C18.0818531,11.2797254 18.0818531,10.742998 17.7544408,10.4149094 L12.5953278,5.246023 C12.2679156,4.91799233 11.7322,4.91799233 11.40473,5.246023 L11.4046722,5.24605195 Z" id="Shape"></path>
            </g>
        </g>
    </g>
</svg>