<?xml version="1.0" encoding="UTF-8"?>
<svg width="13px" height="15px" viewBox="0 0 13 15" version="1.1" xmlns="http://www.w3.org/2000/svg" xmlns:xlink="http://www.w3.org/1999/xlink">
    <!-- Generator: Sketch 49 (51002) - http://www.bohemiancoding.com/sketch -->
    <!-- <title>审批流</title> -->
    <desc>Created with Sketch.</desc>
    <defs></defs>
    <g id="秦剑" stroke="none" stroke-width="1" fill="none" fill-rule="evenodd">
        <g id="62.日常检查" transform="translate(-25.000000, -424.000000)" fill="#A5ACB3" fill-rule="nonzero">
            <g id="审批流" transform="translate(25.000000, 424.000000)">
                <path d="M12.1285851,14.5619469 C12.1285851,14.8038772 11.9310658,15 11.6874088,15 L0.455448317,15 C0.211791359,15 0.0142720074,14.8038772 0.0142720074,14.5619469 L0.0142720074,2.53333383 C0.0142720074,2.51655513 0.0153152959,2.50002587 0.0171632393,2.4837405 C0.0153152959,2.46745513 0.0142720074,2.45092586 0.0142720074,2.43414718 C0.0142720074,2.19221687 0.211791359,1.99609402 0.455448317,1.99609402 L3.72126293,1.99609402 L3.72126293,1.54711006 L4.28395973,1.54711006 C4.4949197,0.655948945 5.21021912,0 6.06032979,0 C6.91044049,0 7.62573989,0.655948945 7.83669986,1.54711006 L8.41049544,1.54711006 L8.41049544,1.99609402 L11.6874088,1.99609402 C11.9310658,1.99609402 12.1285851,2.19221687 12.1285851,2.43414718 C12.1285851,2.45092586 12.1275418,2.46745513 12.1256939,2.4837405 C12.1275418,2.50002587 12.1285851,2.51655513 12.1285851,2.53333383 L12.1285851,14.5619469 Z M6.0631045,0.615274321 C5.51526895,0.615274321 5.04670085,1.00121208 4.8559573,1.54711006 L7.27025168,1.54711006 C7.07950813,1.00121208 6.61094004,0.615274321 6.0631045,0.615274321 Z M11.2462325,2.87220586 L8.41049544,2.87220586 L8.41049544,2.87188991 L7.60028486,2.87188991 L7.60028486,2.38410486 L4.55367106,2.38410486 L4.55367106,2.87188991 L3.72126293,2.87188991 L3.72126293,2.87220586 L0.896624641,2.87220586 L0.896624641,14.1238882 L11.2462325,14.1238882 L11.2462325,2.87220586 Z M5.05311594,8.71299948 L7.52814282,7.61021171 L7.52814282,7.00666085 L9.53702113,7.00666085 L9.53702113,8.76156734 L7.52814282,8.76156734 L7.52814282,7.89863679 L5.05311594,9.00142456 L5.05311594,10.1765431 L7.52814282,11.3768657 L7.52814282,10.7491695 L9.53702113,10.7491695 L9.53702113,12.504076 L7.52814282,12.504076 L7.52814282,11.6707396 L5.01813261,10.4534498 L3.04423763,10.4534498 L3.04423763,8.6985433 L5.05311594,8.6985433 L5.05311594,8.71299948 Z M3.72126293,4.11352458 L3.72126293,2.87220586 L4.55367106,2.87220586 L4.55367106,3.23218569 L7.60028486,3.23218569 L7.60028486,2.87220586 L8.41049544,2.87220586 L8.41049544,4.11352458 L3.72126293,4.11352458 Z M4.55367106,2.87404681 L4.55367106,2.87188991 L7.60028486,2.87188991 L7.60028486,2.87404681 L4.55367106,2.87404681 Z" id="Shape"></path>
            </g>
        </g>
    </g>
</svg>