<?xml version="1.0" encoding="UTF-8"?>
<svg width="17px" height="17px" viewBox="0 0 17 17" version="1.1" xmlns="http://www.w3.org/2000/svg" xmlns:xlink="http://www.w3.org/1999/xlink">
    <!-- Generator: Sketch 50.2 (55047) - http://www.bohemiancoding.com/sketch -->
    <title>Group</title>
    <desc>Created with Sketch.</desc>
    <defs></defs>
    <g id="小雪" stroke="none" stroke-width="1" fill="none" fill-rule="evenodd" opacity="0.65">
        <g id="64-角色管理" transform="translate(-22.000000, -250.000000)" fill="#FFFFFF" stroke="#FFFFFF" stroke-width="0.2">
            <g id="Group-51" transform="translate(23.000000, 249.000000)">
                <g id="Group" transform="translate(0.000000, 2.000000)">
                    <path d="M1.45325328,9.39995633 L1.45325328,9.84713974 L2.34759825,9.84713974 L2.34759825,0.0096069869 L1.45325328,0.0096069869 L1.45325328,9.39995633 Z M1.45325328,14.989476 L1.45325328,15.4366594 L2.34759825,15.4366594 L2.34759825,12.3065284 L1.45325328,12.3065284 L1.45325328,14.989476 Z M7.04277293,14.989476 L7.04277293,15.4366594 L7.9371179,15.4366594 L7.9371179,8.9528821 L7.04277293,8.9528821 L7.04277293,14.989476 Z M12.6322926,14.989476 L12.6322926,15.4366594 L13.5266376,15.4366594 L13.5266376,5.59912664 L12.6322926,5.59912664 L12.6322926,14.989476 Z M7.04277293,6.04628821 L7.04277293,6.49347162 L7.9371179,6.49347162 L7.9371179,0.0096069869 L7.04277293,0.0096069869 L7.04277293,6.04628821 Z M12.6322926,2.69255459 L12.6322926,3.13971616 L13.5266376,3.13971616 L13.5266376,0.0096069869 L12.6322926,0.0096069869 L12.6322926,2.69255459 Z" id="Fill-1"></path>
                    <path d="M3.80082969,10.8532969 C3.80082969,9.80371179 2.94997817,8.9528821 1.90041485,8.9528821 C0.850851528,8.9528821 0,9.80371179 0,10.8532969 C0,11.9028603 0.850851528,12.7537118 1.90041485,12.7537118 C2.94997817,12.7537118 3.80082969,11.9028603 3.80082969,10.8532969 Z M0.894344978,10.8532969 C0.894344978,10.2976201 1.34475983,9.84713974 1.90041485,9.84713974 C2.45606987,9.84713974 2.90657205,10.2976201 2.90657205,10.8532969 C2.90657205,11.408952 2.45606987,11.8593668 1.90041485,11.8593668 C1.34475983,11.8593668 0.894344978,11.408952 0.894344978,10.8532969 Z M9.39034934,7.49954148 C9.39034934,6.44997817 8.53949782,5.59912664 7.4899345,5.59912664 C6.44037118,5.59912664 5.58951965,6.44997817 5.58951965,7.49954148 C5.58951965,8.5491048 6.44037118,9.39995633 7.4899345,9.39995633 C8.53949782,9.39995633 9.39034934,8.5491048 9.39034934,7.49954148 Z M6.48386463,7.49954148 C6.48386463,6.94388646 6.93427948,6.49347162 7.4899345,6.49347162 C8.04558952,6.49347162 8.4960917,6.94388646 8.4960917,7.49954148 C8.4960917,8.05519651 8.04558952,8.50569869 7.4899345,8.50569869 C6.93427948,8.50569869 6.48386463,8.05519651 6.48386463,7.49954148 Z M14.979869,4.14587336 C14.979869,3.09622271 14.1290175,2.24537118 13.0794541,2.24537118 C12.0298908,2.24537118 11.1790393,3.09622271 11.1790393,4.14587336 C11.1790393,5.19545852 12.0298908,6.04628821 13.0794541,6.04628821 C14.1290175,6.04628821 14.979869,5.19545852 14.979869,4.14587336 Z M12.0733843,4.14587336 C12.0733843,3.59021834 12.5237991,3.13971616 13.0794541,3.13971616 C13.6351092,3.13971616 14.0856114,3.59021834 14.0856114,4.14587336 C14.0856114,4.70155022 13.6351092,5.15196507 13.0794541,5.15196507 C12.5237991,5.15196507 12.0733843,4.70155022 12.0733843,4.14587336 Z" id="Fill-3"></path>
                </g>
            </g>
        </g>
    </g>
</svg>