<?xml version="1.0" encoding="UTF-8"?>
<svg width="21px" height="21px" viewBox="0 0 21 21" version="1.1" xmlns="http://www.w3.org/2000/svg" xmlns:xlink="http://www.w3.org/1999/xlink">
    <!-- Generator: Sketch 49 (51002) - http://www.bohemiancoding.com/sketch -->
    <!-- <title>Group 123</title> -->
    <desc>Created with Sketch.</desc>
    <defs></defs>
    <g id="陈杰" stroke="none" stroke-width="1" fill="none" fill-rule="evenodd" opacity="0.65">
        <g id="39.即时作业-首页" transform="translate(-766.000000, -203.000000)">
            <g id="Group-123" transform="translate(766.000000, 203.000000)">
                <rect id="Rectangle-43-Copy-10" x="0" y="0" width="21" height="21"></rect>
                <g id="sync" fill="#000000" fill-rule="nonzero">
                    <path d="M20.2883789,10.5020508 C19.8823242,10.4712891 19.5275391,10.7768555 19.4967773,11.1829102 C19.3265625,13.4469727 18.3155273,15.5490234 16.650293,17.1014648 C14.9748047,18.6641602 12.7907227,19.5234375 10.5,19.5234375 C8.71582031,19.5234375 6.99111328,19.0045898 5.5125,18.0202148 C4.21230469,17.1568359 3.16435547,15.9817383 2.4609375,14.6015625 L4.51171875,14.6015625 C4.91982422,14.6015625 5.25,14.2713867 5.25,13.8632812 C5.25,13.4551758 4.91982422,13.125 4.51171875,13.125 L0.73828125,13.125 C0.330175781,13.125 0,13.4551758 0,13.8632812 L0,17.6367187 C0,18.0448242 0.330175781,18.375 0.73828125,18.375 C1.14638672,18.375 1.4765625,18.0448242 1.4765625,17.6367187 L1.4765625,15.8730469 C2.27841797,17.2204102 3.37558594,18.3729492 4.69423828,19.2506836 C6.41689453,20.3950195 8.42255859,21 10.5,21 C13.1660156,21 15.7089844,19.9992187 17.6572266,18.1822266 C19.5972656,16.3754883 20.7723633,13.9289063 20.9692383,11.2936523 C21,10.8875977 20.6964844,10.5328125 20.2883789,10.5020508 Z M20.2617187,2.625 C19.8536133,2.625 19.5234375,2.95517578 19.5234375,3.36328125 L19.5234375,5.12695312 C18.721582,3.77958984 17.6244141,2.62705078 16.3037109,1.74931641 C14.5831055,0.604980469 12.5753906,0 10.5,0 C7.83398438,0 5.29101562,1.00078125 3.34277344,2.81777344 C1.40273438,4.62451172 0.227636719,7.07109375 0.0287109375,9.70634766 C-0.00205078125,10.1124023 0.303515625,10.4671875 0.709570313,10.4979492 C0.728027344,10.5 0.746484375,10.5 0.764941406,10.5 C1.1484375,10.5 1.47041016,10.2046875 1.50117188,9.81708984 C1.67138672,7.55302734 2.68242188,5.45097656 4.34765625,3.89853516 C6.02519531,2.33583984 8.20927734,1.4765625 10.5,1.4765625 C12.2841797,1.4765625 14.0088867,1.99541016 15.4875,2.97978516 C16.7876953,3.84316406 17.8356445,5.01826172 18.5390625,6.3984375 L16.4882812,6.3984375 C16.0801758,6.3984375 15.75,6.72861328 15.75,7.13671875 C15.75,7.54482422 16.0801758,7.875 16.4882812,7.875 L20.2617187,7.875 C20.6698242,7.875 21,7.54482422 21,7.13671875 L21,3.36328125 C21,2.95517578 20.6698242,2.625 20.2617187,2.625 Z" id="Shape"></path>
                </g>
            </g>
        </g>
    </g>
</svg>