<?xml version="1.0" encoding="UTF-8"?>
<svg width="14px" height="17px" viewBox="0 0 14 17" version="1.1" xmlns="http://www.w3.org/2000/svg" xmlns:xlink="http://www.w3.org/1999/xlink">
    <!-- Generator: Sketch 50.2 (55047) - http://www.bohemiancoding.com/sketch -->
    <!-- <title>Group</title> -->
    <desc>Created with Sketch.</desc>
    <defs>
        <polygon id="path-1" points="0.00119148936 0.015906383 13.9985305 0.015906383 13.9985305 16.2837078 0.00119148936 16.2837078"></polygon>
    </defs>
    <g id="小雪" stroke="none" stroke-width="1" fill="none" fill-rule="evenodd" opacity="0.649999976">
        <g id="43-应用列表-复制后" transform="translate(-24.000000, -99.000000)">
            <g id="Group-62" transform="translate(24.000000, 97.000000)">
                <g id="Group-3-Copy">
                    <g id="Group-43">
                        <g id="Group" transform="translate(0.000000, 2.000000)">
                            <g id="Group-3">
                                <mask id="mask-2" fill="white">
                                    <use xlink:href="#path-1"></use>
                                </mask>
                                <g id="Clip-2"></g>
                                <path d="M0.0082212766,8.14571631 C0.0082212766,5.90073191 0.0245049645,3.66396879 7.94326241e-05,1.4189844 C-0.00806241135,0.638161702 0.577594326,0.0362014184 1.36655887,0.0280595745 C2.58668369,0.0118553191 3.80670922,0.0118553191 5.02683404,0.0280595745 C5.78329078,0.0362014184 6.40961702,0.597432624 6.40145532,1.44342979 C6.38517163,5.90887376 6.38517163,10.3743972 6.40145532,14.8399206 C6.40145532,15.6776965 5.78329078,16.2633532 5.0105305,16.271495 C3.79864681,16.2877787 2.57854184,16.2877787 1.36655887,16.271495 C0.675177305,16.2633532 0.146533333,15.8241504 0.0245049645,15.2059858 C7.94326241e-05,15.0920993 7.94326241e-05,14.9782326 7.94326241e-05,14.864366 C0.0082212766,12.6356652 0.0082212766,10.3906809 0.0082212766,8.14571631 Z M0.870422695,8.162 L0.870422695,14.9049957 C0.870422695,15.1571149 0.951721986,15.295427 1.16325106,15.368644 C1.26897589,15.4011518 1.38286241,15.4174355 1.49672908,15.4174355 L4.03446241,15.4174355 C4.34357447,15.4174355 4.64456454,15.4255773 4.95359716,15.4174355 C5.34408794,15.4092936 5.52297021,15.2221901 5.52297021,14.8399206 L5.52297021,1.45963404 C5.52297021,1.08550638 5.35217021,0.898402837 4.97804255,0.898402837 C3.78236312,0.890260993 2.58668369,0.890260993 1.39100426,0.898402837 C1.03308085,0.898402837 0.862280851,1.08550638 0.862280851,1.43528794 C0.870422695,3.67203121 0.870422695,5.9170156 0.870422695,8.162 Z M7.6377844,8.14571631 L7.6377844,1.50842553 C7.6377844,0.605574468 8.18279149,0.0606468085 9.07750071,0.0525049645 L12.5588142,0.0525049645 C12.7214723,0.0525049645 12.8922922,0.0768510638 13.0550298,0.125721986 C13.6487489,0.296541844 13.9985305,0.776394326 13.9985305,1.39455887 L13.9985305,14.8805702 C13.9985305,15.5882553 13.453583,16.1901163 12.7459177,16.2064199 C11.4607177,16.2308454 10.1755972,16.2227035 8.89039716,16.2064199 C8.32918582,16.1982582 7.62972199,15.7264879 7.6377844,14.8480624 C7.65408794,12.6193816 7.6377844,10.382539 7.6377844,8.14571631 Z M13.1363291,8.15385816 L13.1363291,1.48407943 C13.1363291,1.1017305 12.9655092,0.922848227 12.5750979,0.922848227 L9.06121702,0.922848227 C8.67894752,0.922848227 8.50812766,1.1017305 8.50812766,1.49222128 L8.50812766,14.7992709 C8.50812766,15.1815404 8.67080567,15.3523603 9.05315461,15.3523603 L12.6076057,15.3523603 C12.9736511,15.3523603 13.1444709,15.1652567 13.1444709,14.8074128 C13.1363291,12.5949362 13.1363291,10.3743972 13.1363291,8.15385816 Z" id="Fill-1" fill="#FFFFFF" mask="url(#mask-2)"></path>
                            </g>
                            <path d="M2.55409645,6.78735887 L2.55409645,3.72090213 C2.55409645,3.63954326 2.55409645,3.56630638 2.5622383,3.48500709 C2.58668369,3.2897617 2.75748369,3.14338723 2.96081135,3.12710355 C3.15605674,3.11081986 3.3512227,3.24911206 3.39195177,3.4362156 C3.41629787,3.52565674 3.41629787,3.61509787 3.41629787,3.70461844 L3.41629787,9.88640284 C3.41629787,9.96770213 3.41629787,10.0572028 3.39195177,10.1385021 C3.34316028,10.3418894 3.16419858,10.4719801 2.9526695,10.4557759 C2.74934184,10.4394723 2.58668369,10.3011603 2.5622383,10.0978525 C2.55409645,10.0246355 2.55409645,9.95147801 2.55409645,9.87826099 L2.55409645,6.78735887 Z M3.90437163,12.7006809 C3.90437163,13.099234 3.57089362,13.4327915 3.16419858,13.4327915 C2.76564539,13.4327915 2.42400567,13.0911716 2.43216738,12.6925986 C2.44022979,12.3021078 2.76564539,11.9767716 3.16419858,11.9686298 C3.56275177,11.9686298 3.90437163,12.3021078 3.90437163,12.7006809 Z M11.0865901,6.81180426 C11.0865901,7.86102979 11.0865901,8.91031489 11.0784482,9.96770213 C11.0784482,10.0897106 11.0296567,10.2280227 10.9564199,10.3256057 C10.850695,10.4719801 10.679895,10.4882638 10.517217,10.4394723 C10.3545589,10.3906809 10.2650383,10.2686723 10.2325305,10.0978525 C10.2243887,10.049061 10.2243887,9.99212766 10.2243887,9.93519433 L10.2243887,3.55816454 C10.2406723,3.31420709 10.419634,3.13524539 10.6555291,3.13524539 C10.8913447,3.13524539 11.0865901,3.32234894 11.0865901,3.57444823 C11.0947319,3.97302128 11.0865901,4.37971631 11.0865901,4.7782695 L11.0865901,6.81180426 Z M10.1023801,12.7006809 C10.1023801,12.3021078 10.444,11.9686298 10.8425532,11.9767716 C11.2411064,11.9849333 11.5583801,12.3102496 11.5583801,12.7006809 C11.5583801,13.1073759 11.2249021,13.4327915 10.8263489,13.4327915 C10.4277759,13.4327915 10.1023801,13.099234 10.1023801,12.7006809 Z" id="Fill-4" fill="#FFFFFF"></path>
                        </g>
                    </g>
                </g>
            </g>
        </g>
    </g>
</svg>