<?xml version="1.0" encoding="UTF-8"?>
<svg width="16px" height="16px" viewBox="0 0 16 16" version="1.1" xmlns="http://www.w3.org/2000/svg" xmlns:xlink="http://www.w3.org/1999/xlink">
    <!-- Generator: Sketch 50.2 (55047) - http://www.bohemiancoding.com/sketch -->
    <title>Group 45</title>
    <desc>Created with Sketch.</desc>
    <defs></defs>
    <g id="小雪" stroke="none" stroke-width="1" fill="none" fill-rule="evenodd">
        <g id="04-全选-可删除" transform="translate(-1223.000000, -25.000000)" fill="#595959">
            <g id="Group-45" transform="translate(1223.000000, 25.000000)">
                <path d="M10.3834483,15.1034943 L10.3833563,15.1034943 C10.0927586,15.1034023 9.81025287,14.9832414 9.6277931,14.781908 C9.37921839,14.5093793 8.59158621,13.8006897 7.94685057,13.8006897 C7.30657471,13.8006897 6.50673563,14.5135172 6.27703448,14.7631494 C6.09501149,14.9610575 5.81448276,15.0792414 5.52666667,15.0792414 C5.38954023,15.0792414 5.26022989,15.0529195 5.14206897,15.0010345 L5.1214023,14.991954 L3.16172414,13.896046 L3.14225287,13.8824828 C2.78547126,13.6327586 2.64970115,13.1442529 2.82650575,12.7462759 C2.82786207,12.7432184 3.00726437,12.3292414 3.00726437,11.9518161 C3.00726437,10.8064368 2.07533333,9.87450575 0.929954023,9.87450575 L0.86045977,9.87450575 C0.856229885,9.8745977 0.852,9.87468966 0.847885057,9.87468966 C0.519747126,9.87468966 0.252597701,9.5831954 0.167195402,9.13213793 C0.160390805,9.09602299 0,8.24043678 0,7.56629885 C0,6.89218391 0.160390805,6.03650575 0.167195402,6.0003908 C0.253586207,5.54358621 0.526574713,5.25013793 0.86045977,5.25802299 L0.929954023,5.25802299 C2.07533333,5.25802299 3.00726437,4.32609195 3.00726437,3.18071264 C3.00726437,2.80337931 2.82795402,2.38949425 2.82606897,2.38535632 C2.64951724,1.98772414 2.78618391,1.49931034 3.14448276,1.2503908 L3.16478161,1.23629885 L5.23294253,0.100252874 L5.25448276,0.0911034483 C5.37096552,0.0414252874 5.49848276,0.0162988506 5.6336092,0.0162988506 C5.9208046,0.0162988506 6.20186207,0.131862069 6.38558621,0.325471264 C6.6303908,0.581747126 7.40409195,1.24832184 8.03034483,1.24832184 C8.65068966,1.24832184 9.41972414,0.594965517 9.66370115,0.343149425 C9.84634483,0.153494253 10.1254483,0.039908046 10.4097471,0.039908046 C10.5475862,0.039908046 10.6775402,0.065954023 10.7958851,0.117402299 L10.8168046,0.126574713 L12.8143908,1.23629885 L12.834046,1.25013793 C13.1914483,1.49949425 13.3275862,1.988 13.1506897,2.38625287 C13.1493333,2.38931034 12.969908,2.80328736 12.969908,3.18071264 C12.969908,4.32609195 13.9018391,5.25802299 15.0472414,5.25802299 L15.1167356,5.25802299 C15.4501609,5.25057471 15.7235172,5.54349425 15.809977,6.0003908 C15.8168046,6.03650575 15.9771954,6.89209195 15.9771954,7.56622989 C15.9771954,8.24034483 15.8168046,9.09602299 15.8098851,9.13213793 C15.7235172,9.58894253 15.4501609,9.88133333 15.1166437,9.87450575 L15.0472414,9.87450575 C13.9018391,9.87450575 12.969908,10.8064368 12.969908,11.9518161 C12.969908,12.3291494 13.1492414,12.7429425 13.1510345,12.7470805 C13.3274943,13.1444368 13.1911724,13.6329425 12.8335172,13.8821379 L12.8134943,13.8961379 L10.7822299,15.0188046 L10.7610345,15.027954 C10.6448506,15.078069 10.5177701,15.1034943 10.3834483,15.1034943 Z M10.3217471,14.1465057 C10.3308276,14.1524368 10.3565057,14.1624828 10.3834483,14.1624828 C10.3845287,14.1624828 10.3855862,14.1624828 10.3864828,14.1623908 L12.2842989,13.1135402 C12.2385057,13.0071264 12.0290115,12.4905977 12.0290115,11.951908 C12.0290115,10.3407356 13.298046,9.02032184 14.8890115,8.93772414 C14.911908,8.81128736 15.0361839,8.09997701 15.0361839,7.56629885 C15.0361839,7.03273563 14.911908,6.32170115 14.8890115,6.19489655 C13.298046,6.11227586 12.0290115,4.79188506 12.0290115,3.18071264 C12.0290115,2.6411954 12.2391264,2.12404598 12.2845747,2.01843678 L10.4175632,0.981172414 C10.4154023,0.98108046 10.4128046,0.98091954 10.4097471,0.98091954 C10.377954,0.98091954 10.3482299,0.992505747 10.3383678,0.999149425 C10.3070115,1.03137931 10.0363678,1.3057931 9.64763218,1.57924138 C9.0722069,1.98404598 8.52811494,2.18933333 8.03034483,2.18933333 C7.52774713,2.18933333 6.97926437,1.98002299 6.40013793,1.56721839 C6.00898851,1.28848276 5.73714943,1.00875862 5.70572414,0.975977011 C5.69577011,0.969241379 5.66567816,0.957287356 5.6336092,0.957287356 C5.63110345,0.957287356 5.62885057,0.95737931 5.62696552,0.957471264 L3.69314943,2.0196092 C3.73949425,2.12737931 3.94818391,2.64298851 3.94818391,3.18071264 C3.94818391,4.79188506 2.67914943,6.11227586 1.08818391,6.19489655 C1.06528736,6.32142529 0.941011494,7.03264368 0.941011494,7.56629885 C0.941011494,8.09988506 1.06528736,8.81082759 1.08827586,8.93763218 C2.67914943,9.02032184 3.94818391,10.3406437 3.94818391,11.9518161 C3.94818391,12.4924138 3.73724138,13.0104598 3.69234483,13.1147126 L5.52262069,14.1381379 C5.5237931,14.1382299 5.52514943,14.1382299 5.52666667,14.1382299 C5.55342529,14.1382299 5.57875862,14.1284598 5.58781609,14.1226207 C5.62204598,14.0858851 5.89537931,13.7965517 6.28914943,13.507931 C6.87606897,13.0777931 7.43381609,12.8596782 7.94685057,12.8596782 C8.4648046,12.8596782 9.02675862,13.081931 9.61710345,13.5203218 C10.0131034,13.8144138 10.2876322,14.1091494 10.3217471,14.1465057 Z" id="Fill-1"></path>
                <path d="M7.95356322,10.3222299 C6.42816092,10.3222299 5.18714943,9.08121839 5.18714943,7.5557931 C5.18714943,6.0303908 6.42816092,4.78937931 7.95356322,4.78937931 C9.47898851,4.78937931 10.720092,6.0303908 10.720092,7.5557931 C10.720092,9.08121839 9.47898851,10.3222299 7.95356322,10.3222299 Z M7.95356322,5.73036782 C6.94701149,5.73036782 6.12813793,6.54924138 6.12813793,7.5557931 C6.12813793,8.56236782 6.94701149,9.38133333 7.95356322,9.38133333 C8.96013793,9.38133333 9.77910345,8.56236782 9.77910345,7.5557931 C9.77910345,6.54924138 8.96022989,5.73036782 7.95356322,5.73036782 Z" id="Fill-2"></path>
            </g>
        </g>
    </g>
</svg>