<?xml version="1.0" encoding="UTF-8"?>
<svg width="14px" height="12px" viewBox="0 0 14 12" version="1.1" xmlns="http://www.w3.org/2000/svg" xmlns:xlink="http://www.w3.org/1999/xlink">
    <!-- Generator: Sketch 51 (57462) - http://www.bohemiancoding.com/sketch -->
    <!-- <title>baseline-folder-24px</title> -->
    <desc>Created with Sketch.</desc>
    <defs></defs>
    <g id="Page-1" stroke="none" stroke-width="1" fill="none" fill-rule="evenodd">
        <g id="20-脚本库" transform="translate(-385.000000, -661.000000)">
            <rect fill="#F8F9FE" x="0" y="0" width="1440" height="969"></rect>
            <g id="Group-57" transform="translate(384.000000, 332.000000)">
                <g id="Group-48" transform="translate(0.000000, 324.000000)">
                    <g id="baseline-folder-24px" transform="translate(0.000000, 3.000000)">
                        <path d="M6.66666667,2.66666667 L2.66666667,2.66666667 C1.93333333,2.66666667 1.34,3.26666667 1.34,4 L1.33333333,12 C1.33333333,12.7333333 1.93333333,13.3333333 2.66666667,13.3333333 L13.3333333,13.3333333 C14.0666667,13.3333333 14.6666667,12.7333333 14.6666667,12 L14.6666667,5.33333333 C14.6666667,4.6 14.0666667,4 13.3333333,4 L8,4 L6.66666667,2.66666667 Z" id="Shape" fill-opacity="0.65" fill="#000000" fill-rule="nonzero"></path>
                        <polygon id="Shape" points="0 0 16 0 16 16 0 16"></polygon>
                    </g>
                </g>
            </g>
        </g>
    </g>
</svg>