<?xml version="1.0" encoding="UTF-8"?>
<svg width="15px" height="15px" viewBox="0 0 15 15" version="1.1" xmlns="http://www.w3.org/2000/svg" xmlns:xlink="http://www.w3.org/1999/xlink">
    <!-- Generator: Sketch 50.2 (55047) - http://www.bohemiancoding.com/sketch -->
    <title>Group</title>
    <desc>Created with Sketch.</desc>
    <defs></defs>
    <g id="小雪" stroke="none" stroke-width="1" fill="none" fill-rule="evenodd" fill-opacity="0.65">
        <g id="04-全选-可删除" transform="translate(-1263.000000, -25.000000)" fill="#000000">
            <g id="Group" transform="translate(1263.000000, 25.000000)">
                <path d="M7.50206707,3.7609939 C6.83239024,3.7609939 6.29381707,3.9454939 5.88552439,4.3107622 C5.47993902,4.6797622 5.23362805,5.20611585 5.1512561,5.8982378 L6.0662378,6.00784756 C6.14584756,5.49085976 6.31262195,5.11435976 6.56828049,4.8717622 C6.82117683,4.62918293 7.13957927,4.50834146 7.5170122,4.50834146 C7.91037805,4.50834146 8.241,4.64511585 8.51167683,4.91014024 C8.78235366,5.17710366 8.91817683,5.4890122 8.91817683,5.84206098 C8.91817683,6.03685976 8.87037805,6.21856098 8.7804878,6.38248171 C8.68681098,6.5454878 8.48637805,6.76834756 8.1782561,7.0437439 C7.87013415,7.32278049 7.65656707,7.53256098 7.5395122,7.67870122 C7.39210976,7.85604878 7.27362805,8.05547561 7.18831098,8.26970122 C7.08433537,8.56653659 7.03454268,8.87965244 7.0412561,9.19412195 C7.0412561,9.25501829 7.04403659,9.34490854 7.04590244,9.46759756 L7.9010122,9.46759756 C7.9085122,9.10417683 7.9310122,8.841 7.97597561,8.67993293 C8.01812195,8.51881098 8.0855122,8.37460976 8.17360976,8.24912195 C8.26165244,8.12357927 8.45171341,7.93157927 8.74210976,7.66746951 C9.1719878,7.27690244 9.46417683,6.94534756 9.61123171,6.67280488 C9.75921951,6.40214634 9.83418293,6.10245732 9.83418293,5.78025 C9.83418293,5.22204878 9.62337805,4.74343902 9.20008537,4.35007317 C8.77392073,3.95764024 8.21105488,3.7609939 7.50206707,3.7609939 Z M7.49363415,10.1382073 C7.18880488,10.1417744 6.9445061,10.3915793 6.94757927,10.6964085 C6.94757927,11.0035976 7.19109146,11.254628 7.49363415,11.254628 C7.64026829,11.2533476 7.78039024,11.1938232 7.8830122,11.089061 C7.98561585,10.9843171 8.04234146,10.8430427 8.04056707,10.6964085 C8.04270732,10.3915793 7.79839024,10.1422866 7.49363415,10.1382073 Z" id="Fill-1"></path>
                <path d="M7.49271951,0.0146341463 C3.35456707,0.0146341463 0,3.36920122 0,7.50735366 C0,11.6454146 3.35456707,14.9999817 7.49271951,14.9999817 C11.6307805,14.9999817 14.9853476,11.6454146 14.9853476,7.50735366 C14.9853476,3.36920122 11.6307805,0.0146341463 7.49271951,0.0146341463 Z M7.49271951,14.0634146 C3.87160976,14.063122 0.936365854,11.127439 0.936567073,7.50634756 C0.936859756,3.88532927 3.87254268,0.949993902 7.49363415,0.950268293 C11.1147256,0.950560976 14.0499878,3.8862439 14.0497134,7.50735366 C14.0494207,11.1284451 11.113811,14.0637073 7.49271951,14.0634146 Z" id="Fill-3"></path>
            </g>
        </g>
    </g>
</svg>