<?xml version="1.0" encoding="UTF-8"?>
<svg width="16px" height="16px" viewBox="0 0 16 16" version="1.1" xmlns="http://www.w3.org/2000/svg" xmlns:xlink="http://www.w3.org/1999/xlink">
    <!-- Generator: Sketch 50.2 (55047) - http://www.bohemiancoding.com/sketch -->
    <!-- <title>Group</title> -->
    <desc>Created with Sketch.</desc>
    <defs></defs>
    <g id="小雪" stroke="none" stroke-width="1" fill="none" fill-rule="evenodd" opacity="0.65">
        <g id="66-超级管理员" transform="translate(-23.000000, -199.000000)" fill="#FFFFFF" stroke="#FFFFFF">
            <g id="Group" transform="translate(24.000000, 200.000000)">
                <path d="M7.34224242,14.4444242 L0.989111111,14.4444242 C0.442868687,14.4444242 0,13.9999798 0,13.4553939 L0,0.994767677 C0,0.448525253 0.444444444,0.00565656566 0.989111111,0.00565656566 L11.4375758,0.00565656566 C11.9838182,0.00565656566 12.4266869,0.45010101 12.4266869,0.994767677 L12.4266869,7.25092929 C12.4266869,7.42870707 12.2812525,7.57416162 12.1034545,7.57416162 C11.9256566,7.57416162 11.7802222,7.42870707 11.7802222,7.25092929 L11.7802222,0.994767677 C11.7802222,0.80569697 11.6266667,0.652121212 11.4375758,0.652121212 L0.989111111,0.652121212 C0.800040404,0.652121212 0.646464646,0.80569697 0.646464646,0.994767677 L0.646464646,13.4553939 C0.646464646,13.6444646 0.800040404,13.7979596 0.989111111,13.7979596 L7.34224242,13.7979596 C7.5199596,13.7979596 7.66547475,13.9434747 7.66547475,14.1211919 C7.66547475,14.2989899 7.5199596,14.4444242 7.34224242,14.4444242 Z" id="Fill-1" stroke-width="0.3"></path>
                <path d="M9.98626263,4.32084848 L2.5389899,4.32084848 C2.33214141,4.32084848 2.16563636,4.15432323 2.16563636,3.94749495 L2.16563636,3.93937374 C2.16563636,3.73252525 2.33214141,3.5660202 2.5389899,3.5660202 L9.98626263,3.5660202 C10.1931111,3.5660202 10.3596162,3.73252525 10.3596162,3.93937374 L10.3596162,3.94749495 C10.3596162,4.15274747 10.1915152,4.32084848 9.98626263,4.32084848 Z M6.96725253,8.83472727 L2.39353535,8.83472727 C2.26743434,8.83472727 2.16406061,8.68448485 2.16406061,8.50020202 L2.16406061,8.49373737 C2.16406061,8.30947475 2.26743434,8.15923232 2.39353535,8.15923232 L6.96725253,8.15923232 C7.09335354,8.15923232 7.19672727,8.30947475 7.19672727,8.49373737 L7.19672727,8.50020202 C7.19672727,8.68448485 7.09335354,8.83472727 6.96725253,8.83472727 Z M8.68686869,6.58670707 L2.47593939,6.58670707 C2.30460606,6.58670707 2.16406061,6.43636364 2.16406061,6.25210101 L2.16406061,6.24563636 C2.16406061,6.06145455 2.3030303,5.91111111 2.47593939,5.91111111 L8.68686869,5.91111111 C8.85818182,5.91111111 8.99880808,6.06145455 8.99880808,6.24563636 L8.99880808,6.25210101 C8.99880808,6.43636364 8.85977778,6.58670707 8.68686869,6.58670707 Z" id="Fill-3" stroke-width="0.3"></path>
                <path d="M13.8311313,14.2828081 C13.6161616,14.4977576 13.2670505,14.4977576 13.0537374,14.2828081 L11.9418384,13.1693333 C11.9369495,13.1660808 11.9353737,13.1611919 11.9304848,13.1563838 C11.5296768,13.3793939 11.0691313,13.5070707 10.5793939,13.5070707 C9.03755556,13.5070707 7.78828283,12.2561212 7.78828283,10.7127273 C7.78828283,9.16933333 9.03755556,7.91838384 10.5793939,7.91838384 C12.1212121,7.91838384 13.3705051,9.16933333 13.3705051,10.7127273 C13.3705051,11.3656566 13.1442626,11.9652525 12.7692525,12.4420606 L13.8311313,13.5054141 C14.0460808,13.7188081 14.0460808,14.0678384 13.8311313,14.2828081 Z M10.5810505,8.75234343 C9.49975758,8.75234343 8.62381818,9.62985859 8.62381818,10.7127273 C8.62381818,11.795596 9.49975758,12.6731111 10.5810505,12.6731111 C11.6622424,12.6731111 12.538202,11.795596 12.538202,10.7127273 C12.538202,9.62985859 11.6622424,8.75234343 10.5810505,8.75234343 Z" id="Fill-4" stroke-width="0.2"></path>
            </g>
        </g>
    </g>
</svg>