<?xml version="1.0" encoding="UTF-8"?>
<svg width="17px" height="15px" viewBox="0 0 17 15" version="1.1" xmlns="http://www.w3.org/2000/svg" xmlns:xlink="http://www.w3.org/1999/xlink">
    <!-- Generator: Sketch 50.2 (55047) - http://www.bohemiancoding.com/sketch -->
    <!-- <title>Group</title> -->
    <desc>Created with Sketch.</desc>
    <defs></defs>
    <g id="小雪" stroke="none" stroke-width="1" fill="none" fill-rule="evenodd" opacity="0.65">
        <g id="66-超级管理员" transform="translate(-22.000000, -95.000000)" fill="#FFFFFF" stroke="#FFFFFF" stroke-width="0.3">
            <g id="Group" transform="translate(23.000000, 96.000000)">
                <path d="M10.6325866,7.31233292 C11.8738552,6.66909653 12.7226733,5.37350866 12.7226733,3.87894802 C12.7226733,1.74404703 10.9919926,0.0134220297 8.85714728,0.0134220297 C6.72224629,0.0134220297 4.99149134,1.74410272 4.99149134,3.87894802 C4.99149134,5.35561262 5.81977723,6.63835396 7.03683787,7.28935025 C4.45175124,8.06251856 2.53483292,10.4787809 2.5990099,13.2258787 C2.5990099,13.7673639 3.33107673,13.6929579 3.33107673,13.2527785 C3.33107673,10.2106931 5.79714728,7.74460396 8.83925124,7.74460396 C11.8813366,7.74460396 14.3474257,10.2107673 14.3474257,13.2527785 C14.3474257,13.6218193 14.9900681,13.5661262 14.9900681,13.2258787 C15.050625,10.5048267 13.176349,8.11037748 10.6325866,7.31233292 Z M8.79464109,7.03030322 C8.71995668,7.03030322 8.64592203,7.03329208 8.57179455,7.0360396 C6.95662129,6.90014851 5.68787748,5.54704827 5.68787748,3.8967698 C5.68787748,2.15630569 7.09884282,0.745470297 8.83925124,0.745470297 C10.5797339,0.745470297 12.0693007,2.15636139 12.0693007,3.8967698 C12.0693007,5.55480817 10.7172958,6.91275371 9.08450495,7.03778465 C8.9879703,7.03299505 8.89130569,7.03052599 8.79464109,7.03030322 Z M4.89148515,7.47564356 C4.89657178,7.47564356 4.90149134,7.47599629 4.90642946,7.47599629 C5.36030941,7.47599629 5.37011139,6.73871287 4.89148515,6.73871287 C4.87930693,6.73871287 4.86720297,6.73806312 4.8549505,6.7379146 L4.85428218,6.72399134 C4.79055074,6.72399134 4.72759901,6.72668317 4.66472153,6.72907797 C3.31163985,6.62196163 2.18443069,5.56641089 2.18443069,4.19329827 C2.18443069,2.74397896 3.43991955,1.56920792 4.89148515,1.56920792 C5.37089109,1.56920792 5.24457921,0.959554455 4.74898515,0.959554455 C2.96834777,0.959554455 1.5248948,2.40076114 1.5248948,4.17842822 C1.5248948,5.35980817 2.2322896,6.42668317 3.22925124,7.01001238 C1.25244431,7.73365099 -0.0504022277,9.74309406 0.00152227723,11.9616089 C0.00152227723,12.4126671 0.690649752,12.3505136 0.690649752,11.9839418 C0.690649752,9.45085396 2.35425743,7.47599629 4.89148515,7.47599629 L4.89148515,7.47564356 Z" id="Fill-1"></path>
            </g>
        </g>
    </g>
</svg>